<svg xmlns="http://www.w3.org/2000/svg" viewBox="0 0 180 180"><rect width="180" height="180" rx="40" ry="40" fill="#fff"/><path d="M58 159l4-13 8-24 2-20c-1-7-1-7-7-8l-16-1c-8 0-12 0-16 2-5 2-6 3-9 1-2-1-5-2-6-4l-1-8 1-9c1-2 5-5 10-7l22-14 16-12c5-3 5-4 4-10 0-4 5-8 5-8v4c2 2 5 0 6-1h2l2 3 4-1 6-4h1l1 3c1 2 1 3 3 2l6-1 4-1v3c-1 1 2 2 7 4l10 10h-4c-2 0-1 0 3 5l8 9 4 5h-3c-3 1-2 2 3 6l8 10 3 10 1 5-5-4c-4-2-4-3-4 0a171 171 0 006 18c1 6 3 9 8 14l6 7-2 1c-2 0-2 1 0 4s3 7 3 10l2 8s-8-10-16-9c-2 0-2 1-1 2l3 5 4 5v3l-3-2-8 2H58z" fill="#111"/></svg>
