<?xml version="1.0" encoding="UTF-8"?>
<svg version="1.1" viewBox="0 0 1024 1024" xmlns="http://www.w3.org/2000/svg">
<style>
  path {
      fill: #000;
  }
  @media (prefers-color-scheme: dark) {
      path {
          fill: #eee;
      }
  }
</style>
<path d="m319.81 986.98c-188.08-75.83-320.81-259.92-320.81-474.98 0-282.77 229.45-512 512.5-512s512.5 229.23 512.5 512c0 103.31-30.629 199.47-83.307 279.92-0.911-1.015-1.827-2.032-2.754-3.053-31.854-35.112-43.313-55.849-52.796-95.533-6.661-27.878-16.26-65.018-21.33-82.533-5.069-17.512-11.068-39.758-13.329-49.432-3.822-16.356-1.941-16.084 26.871 3.916 15.182 10.539 29.645 26.715 29.645 26.715s-1.088-21.99-3.611-39.457c-2.721-18.836-12.717-49.039-22.211-67.113-9.497-18.077-33.786-49.2-53.981-69.164-33.719-33.339-35.359-36.863-20.105-43.199 7.184-2.985 21.908-3.067 21.908-3.067s-14.048-16.203-25.787-30.861c-11.661-14.562-35.199-45.8-53.17-68.746-24.242-30.949-29.12-41.721-18.9-41.721 5.143 0 8.679-2.035 10.373-5.773 1.177-2.598 1.464-6.018 0.785-10.149-1.456-8.843-24.433-28.37-51.688-43.924-29.798-17.005-47.694-32.631-45.568-39.794 2.559-8.621-3.85-10.642-23.836-7.502-15.035 2.359-33.563 7.331-41.174 11.052-10.587 5.173-15.104 1.099-19.226-17.351-2.496-11.165-8.727-19.595-5.834-22.467 4.035-4.007-3.028-1.698-5.655-0.566-6.63 2.858-29.212 18.266-42.898 29.21-13.685 10.947-26.095 16.016-27.578 11.268-1.482-4.747-6.281-14.774-10.664-22.281-6.283-10.76-9.379-11.197-14.639-2.061-5.108 8.874-10.148 7.276-21.508-6.822-8.159-10.127-4.219-27.512-4.219-27.512s-24.494 30.564-23.253 56.795c2.187 46.278 1.301 48.45-29.778 73.11-17.616 13.978-73.949 56.992-125.18 95.582-51.238 38.592-116.85 83.541-145.81 99.888-28.961 16.344-57.156 38.872-62.66 50.061-5.504 11.188-10.062 38.88-10.127 61.535-0.062 22.657 5.202 49.727 11.707 60.16 6.507 10.431 22.191 23.789 34.854 29.68 19.325 8.989 28.815 7.759 59.054-7.647 27.518-14.02 52.287-18.213 104.88-17.757 37.869 0.328 87.083 3.308 109.36 6.623 40.504 6.026 40.502 6.026 42.887 61.818 1.335 31.202-4.612 93.355-13.496 141.02-8.735 46.877-30.395 122.85-48.127 168.82-4.496 11.657-8.65 22.92-12.31 33.293z" fill="#000"/>
</svg>
