<?xml version="1.0" standalone="no"?>
<!DOCTYPE svg PUBLIC "-//W3C//DTD SVG 20010904//EN"
 "http://www.w3.org/TR/2001/REC-SVG-20010904/DTD/svg10.dtd">
<svg version="1.0" xmlns="http://www.w3.org/2000/svg"
 width="700.000000pt" height="700.000000pt" viewBox="0 0 700.000000 700.000000"
 preserveAspectRatio="xMidYMid meet">
<metadata>
Created by potrace 1.14, written by Peter Selinger 2001-2017
</metadata>
<g transform="translate(0.000000,700.000000) scale(0.100000,-0.100000)"
fill="#000000" stroke="none">
<path d="M2862 6630 c-43 -45 -87 -123 -112 -196 -16 -47 -20 -84 -20 -206 0
-82 -5 -169 -11 -193 -22 -86 -70 -126 -534 -442 -812 -553 -1258 -836 -1645
-1043 -263 -140 -430 -262 -467 -341 -46 -99 -73 -307 -62 -474 8 -115 43
-242 81 -300 40 -60 125 -127 226 -177 70 -35 94 -42 160 -46 84 -4 112 4 341
98 130 53 244 77 441 91 317 23 1072 -18 1246 -66 73 -21 108 -64 122 -146 38
-224 18 -582 -53 -997 -60 -346 -205 -823 -377 -1237 -137 -329 -218 -559
-203 -574 17 -16 322 -22 1551 -27 1549 -7 1795 0 1896 52 15 8 46 38 70 68
24 30 53 59 66 65 29 14 58 2 174 -71 113 -72 207 -109 288 -115 78 -6 138 8
174 42 15 13 35 29 46 35 26 14 131 12 224 -4 86 -15 106 -13 106 14 0 23 -81
136 -177 247 -44 50 -96 113 -116 141 -40 54 -87 148 -87 174 0 28 29 48 72
48 73 0 188 -69 446 -266 137 -105 180 -124 218 -99 40 26 48 60 48 200 0 103
-5 149 -23 220 -32 123 -88 262 -150 370 -79 137 -80 158 -6 168 58 8 85 23
85 46 0 24 -89 126 -298 344 -188 194 -272 309 -321 436 -16 42 -59 182 -96
311 -36 129 -86 298 -110 375 -58 183 -115 383 -115 401 0 31 53 10 206 -81
87 -52 169 -95 182 -95 20 0 22 5 22 49 0 189 -118 497 -260 681 -74 94 -225
251 -417 431 -124 117 -131 138 -55 170 81 34 97 44 100 66 4 24 -53 97 -259
333 -366 420 -409 475 -409 516 0 23 17 34 54 34 25 0 50 23 60 57 22 71 -99
174 -389 333 -244 134 -319 194 -317 255 1 30 -3 37 -26 46 -49 19 -274 -16
-430 -67 -75 -24 -77 -24 -102 -6 -24 18 -41 61 -82 207 -11 39 -19 51 -36 53
-28 4 -117 -44 -287 -155 -218 -144 -227 -145 -286 -33 -24 44 -56 92 -71 107
l-29 28 -40 -43 c-22 -23 -50 -42 -60 -42 -11 0 -44 22 -72 49 l-52 50 -5 83
-5 83 -33 -35z"/>
</g>
</svg>
