<svg width="800" height="800" xmlns="http://www.w3.org/2000/svg"><style>@media (prefers-color-scheme:dark){path{fill:#eee}}</style><path d="M227 773c-2-2 8-37 23-72a587 587 0 0051-237c-2-43-2-43-36-48-18-2-59-5-90-5-44 0-64 3-87 14-25 12-33 13-49 6-10-5-23-15-29-23-5-8-9-29-9-46s4-39 8-47c5-9 28-26 52-39 24-12 78-47 121-76 42-30 72-54 86-64 26-19 27-21 25-56-1-20 26-44 26-44s-6 15 0 23c10 10 27 1 31-6 5-7 7-6 12 2l9 17c1 4 12 0 23-9l35-22c3-1 8-3 5 0-2 3 3 9 5 18 3 14 7 17 16 13 6-3 21-7 34-9l21-2-4 14c-1 6 16 12 40 25 17 9 53 54 53 54s-16-5-21-5c-8 0-3 5 17 29l44 52 22 24s-12 0-18 2c-13 5-12 8 16 33 17 16 37 39 45 53s16 37 18 52l3 30s-12-12-24-21c-24-15-26-15-23-3l11 38c5 14 13 42 18 64 8 30 17 46 44 73 18 19 33 36 33 39s-4 6-10 6c-9 0-9 3 2 22 8 13 15 35 18 51 5 27 6 43 6 43s-44-49-86-47c-8 1-10 4-7 12 3 7 11 20 19 29l21 27 3 12s-7-4-18-6c-12-3-43 10-43 10s-460 2-462 0z"/></svg>