<svg xmlns="http://www.w3.org/2000/svg" viewBox="0 0 1002 732">
  <g id="lotp">
    <g id="WATCHING">
      <path id="voyeur_killer_freak_jock_ditz" fill="#111" fill-rule="evenodd" stroke="none" d="M6.3 569c6-36.3 19.3-118.9 23.3-126l.5-.8 11.3-6.7a341.2 341.2 0 0 0 13.3 25.9l9.5-11.2c5.4-7.3 9.9-14.5 14-21.9 4.7.6 9.8 1 13.7 3.8a84.9 84.9 0 0 1 23.3 28.4c.2.4 1 7.1 2.1 17.3 4.6-26.2 9-48.7 11-52.2l.5-.9L140 418a331 331 0 0 0 13.3 26l9.5-11.3c5.4-7.2 9.8-14.5 14-21.8 4.7.6 9.8.9 13.6 3.7A84.9 84.9 0 0 1 214 443l.3 2c3.4-25.7 6.4-45.2 7.7-46.2 2.5-1.9 6.3-8.6 8.5-15 2.2-6.3 6.8-17.6 10.2-25.2 3.6-7.8 8.6-14.3 11.9-15.1 3-.8 5-3 4.4-4.7-.6-2-6.5-2.8-15-2.3-8.1.6-17.3 5.3-17.3 5.3l-8.6 1.4s-7.7-7.7-10.8-13.7c-3-6-8.6-14.7-12.2-19.2-4.1-5-10-13.8-7-20.3 1.6-3.5 4-3.1 10.6-4.3 6-1 8.7-3.2 9-7.1l.7-13.1c.1-4 3.5-12.3 7.5-18.1 6.6-9.8 6.9-11.2 2.9-15.6-4.1-4.5-3.7-5.2 4.8-7.8a174 174 0 0 0 28.2-14.9c16-10 18.7-12.9 17.3-18.2-1.4-5.6-1.1-5.9 3.1-2.4 4.4 3.6-1.5.7-1.5-9.8 0-6.3 9.4-15.7 9.4-15.7s3.7 7.8 5.3 13.7c1.7 6 4 12.2 5.1 13.9 1.2 1.7 5 3.8 8.6 4.7 5.4 1.3 13.3-4.5 13.3-4.5s1.6-9.1 5.7-15.8c4-6.7 10.6-10.8 10.6-10.8s9.1 5.7 11.4 11.8c3 8.1-.5 17.3-.5 17.3l6.5 3.7-1-10s4.6 7.6 13 14.8c12.1 10.4 12.4 10.1 14.5.7 1-4.6 2.5-8.5 2.5-8.5l4.8 10.6c2.8 6.2 6 15.6 7 20.7 1.8 9.2 2 9.3 7.4 4.3 3.1-2.8 5.8-5.6 5.8-5.6s2.6 4-.9 10.9a435 435 0 0 0-10.3 22c-3.6 8.7-3.6 9.5.4 8 2.5-1 5.8-1.9 5.8-1.9s-4.5 7.7-8.5 11.4c-3.9 3.6-7 7.7-7 9 0 1.2 7.5-1.4 7.5-1.4s-2.4 4-8.2 9a106 106 0 0 0-19.3 27c-5.3 10.5-7.5 18-5.7 18.6 1.3.4 6.2-1.6 6.2-1.6s-5.7 5.7-6.6 6.8c-2.8 3.4-2.7 4.7.6 6.8 2.2 1.4 6.3 1 9 2.6 1.4 1 4.3 1.7 3.5 3.7-.7 2 1.6 5 5 6.7L388 371c2.4 1.2 5 2.4 7.6 3.3l.6-7.8 1.1-15 1.2-15 .2-2v-.7l.3-1.4.3-1.4.4-1.3.4-1.3.5-1.3.5-1.3.6-1.3.6-1.3.7-1.3.7-1.3.7-1.2.8-1.3.8-1.2.9-1.2.8-1.2 1-1.2.9-1.2 1.4-1.7 1.9-2.3 2-2.2 2-2 2-2 2-2 1.9-1.9 1-.9.4-.4 1-.9.9-.8 1-.7 1-.8 1-.6 1-.7 1-.6 1.1-.6 1.1-.6 1.1-.6 1.1-.5 1.1-.5 1.2-.4 1.7-.7 2.3-.9 2.3-.7 2.4-.8 2.4-.6 3.6-1 4.8-1.2 3.6-.9 2.3-.6 2.4-.7 2.3-.7 2.3-.8 2.2-.8 1.6-.7 1.1-.4 1-.5 1.1-.5 1-.6 1-.5 1-.6 1-.6 1-.7 1-.7.9-.7.9-.7.9-.8.8-.8.9-.9.8-.9.8-.9.7-1 .8-1 .7-1 .3-.6.2-.3.4-.7.4-.9.5-1 .4-1 .5-1.1.5-1.2.4-1.3.4-1.3.5-1.3.4-1.4.4-1.5.3-1.4.3-1.5.3-1.4.2-1.5.1-1.4.1-1.4v-4l-.2-1-.1-.5-.1-.6-.2-.5-.2-.5-.2-.5-.2-.5-.2-.5-.3-.4-.3-.4-.3-.4-.3-.3-.4-.3-.4-.3-.4-.3-.5-.2-.4-.2-.5-.2-.6-.1-.6-.1-.6-.1h-1.5l-.5.2-.6.2-1.1.4-1.8.8-2.1 1-2.3 1.1-2.5 1.3-2.6 1.4-2.6 1.4-2.7 1.6-2.5 1.5-2.5 1.5-2.3 1.5-1.5 1-1 .8-.8.6-.8.7-.7.6-.6.5-.2.3-.3.3-.6.5-.6.5-.5.4-.6.3-.5.3-.6.2-.5.1-.6.1h-1l-.5-.1-.5-.1-.5-.2-.5-.2-.4-.3-.7-.4-.9-.6-1.2-1-1.2-1-.8-.7-.8-.6-.5-.4-.4-.2-.5-.3.2-.6h2l.8-.2.7-.2.7-.2.7-.2.7-.3.4-.1.5-.2 1.3-.6 1.2-.6 1.2-.7 1.2-.8 1.2-.8 1.3-.9 1.2-1 1.2-.9 1.1-1 1.1-1 1.1-1 1-1 1-1.1.9-1 .8-1 .4-.6.1-.2v-.9l-.1-.3-.2-.3-.4-.5-.4-.5-.5-.5-.6-.4-.5-.4-.6-.4-.5-.3-.4-.3-.4-.1h-.2l-1 1.4-2 3-1.6 2.3-1 1.4-1 1.4-1.2 1.4-1.1 1.4-1.2 1.2-1.2 1.3-1 .9-.7.5-.7.6-.8.6-.7.5-.8.5-.8.5-.8.5-1 .4-.8.5-.5.2-.5.3h-1.2l-.2.1-.4.2-.2.1-.4.3-.8.4-.8.4-.7.4-.7.2-.6.3-.7.2-.6.2-.5.1h-.6l-.5.1h-1l-.5-.1-.4-.1-.5-.2-.4-.1-.5-.2-.6-.4-.8-.6-.8-.7-1.3-1-1.5-1.4-1-1-.6-.4-.6-.5-1.2-1-1.1-1-1-1.1-.8-1-.8-1-.4-.8-.4-.5-.5-1-.2-.6-.2-.6-.2-.5-.2-.6-.2-1-.2-1.2-.2-1.4v-7.8l.2-3.8.3-3.8.2-3.7.6-7.6.1-1.8.9-.3 6.2-2.4 7-2.7 4.8-2 4.8-1.9 3.2-1.4 2-.8.8-.4.5-.2.9-.5.9-.4.8-.5.9-.5.8-.5.7-.6.8-.5.7-.6.7-.5.6-.6.6-.6.6-.6.6-.6.5-.6.6-.6.7-1 1-1.3.8-1.4.8-1.4.7-1.4.7-1.5.6-1.5.6-1.5.5-1.5.5-1.6.8-2.4 1-3.3 1-3.3.7-2.5.6-1.7.6-1.7.7-1.6.7-1.7.8-1.7.8-1.6 1-1.7.4-.8.4-.6 1.1-1.7 1.6-2.3 1.7-2.6 1.3-2.1.9-1.4.7-1.3.7-1.2.5-1.2.3-.7.2-.5.1-.4v-.4l.1-.3v-.3l-.8-2.3-1.5-4.6-1.6-4.6-1.1-3.4-.8-2.2-.7-2.3-.7-2.3-.6-2.3-.6-2.4-.5-2.3-.6-2.5-.4-2.4-.4-2.5-.1-1.3-.1-.8-.1-1.4v-2.4l.2-1 .1-.7.2-.5.1-.4.2-.3.1-.4.2-.3.2-.3.3-.2.2-.2.3-.2.3-.2.2-.1.3-.2h.3l.5-.1h1.4l.7.2.7.2.7.3.8.4.7.4.8.5.7.6.8.5.7.7.8.7.7.7.7.7.7.8.6.7.6.9.6.8.6.8.2.4 1 1.5 1.7 2.7 1.2 1.8.8 1 .8 1.1.7 1 .2.2.3-.2 1.1-.5 1.1-.6.4-.2.4.5-.2.2-.4.5-.3.6-.3.5-.2.6-.1.5v.1l.3.4 1 1 1.2 1 1.1.9.6.4h2.5l.6-.1.6-.2h.6l.8-.3 1-.4.6-.3.4-.2.3-.2.3-.2.4-.4.5-.3.3-.2.3-.2.3-.1h1.3l.3.2.3.2.3.3.3.3.5.5.4.4.4.6 1 1.3.7 1.2.5.8.2.5v.2h.4l.2.1h1.7l1-.2 1.3-.4 1.5-.4 1.6-.6.8-.3 1-.5 2.4-.9 1-.3v-.2l-.2-1-.2-1.1-.2-1-.3-1.6-.5-2-.5-2-.6-1.9-.6-1.7-.6-1.5-.3-.7-.1-.4-.8-1.7-2-3.5-2.6-5.4-2-3.9-.4-1h1.6l.6.1.7.1.6.1.6.2.6.1.7.2.9.4 1.2.5 1.2.6 1.1.7 1.2.7 1.1.8 1.1 1 1.1.9 1 1 1.1 1 1 1.1 1 1.2 1 1.1 1 1.2 1 1.2 1 1.2 1.2 2 1.7 2.4L545 93l1.5 2.4 2 3.4 1.2 2 .3.6.6 1.3.6 1.3.5 1.5.2.5h.8l2.4-.3 2.4-.2 2.5-.1h1.2l6-.3h2.7l-.9 1.7-1.2 2.4v.1l.2.2.2.2.4.3.6.3.7.4.9.4 1.5.7 2.3 1 2.8 1 3 1.4 1.7.7.3.1.6.3.7.4.6.4 1 .7 1.6 1 1.5 1.1 1.5 1.3 1.6 1.2 1.5 1.3 2.1 2 2.5 2.2 2.7 2.6.6.5-.3.6-1-.3-3.8-.9-1.8-.4-1-.1h-1.2v.1l.2.3.3.4.5.5 1 .9 2.5 2.4 2.5 2.3 2 1.8 4.2 4 4.1 4 3.6 3.2 1.3 1.3 1.3 1.2 2.6 2.2 3 2.6.8.6-.2.5h-6.6l-.5.2h-.4l-.8.2-.6.2-.5.2-.2.1-.1.1v.1l-.1.1v.4l.3.3.4.5.6.6.8.7 1 .8 1.2 1 2.2 1.5 1.8 1.3.6.4 1 .9 1.8 1.3 2.3 2 2.2 1.9 2.2 2 1.4 1.4 1 1 .8.9.7.8.7.8.6.8.3.3.2.4.5.7.5.8.5.9.5.8.4 1 .6 1.3.8 1.8.5 1.4.3.9.3.8.2.9.2.8.1.8v.3l.2.7v1.3l.2 1.3v4.7l-.4.2-.3-.3-1.4-1-1.7-1.3-1.4-1-1.5-.9-1.7-1-.8-.4-1.6-.8-2.5-1.2-1.4-.7-.8-.3-.6-.3-.5-.1-.4-.1h-.2v1l.2.5v.3l.3.8.7 2.2.8 2.6 1 2.8.4 1.4.6 1.4 1.2 3.8 1.4 4.4 1.3 4.6.6 2.1.2.8.5 1.3.4 1.3.5 1.3.6 1.2.6 1.1.7 1.1.7 1.1.9 1.2.9 1 1 1.2 1 1 1.3 1.3 1.3 1.2 1.5 1.2 1.6 1.3.8.7 1.2 1 2.3 2 2.1 1.7 2 1.7 1.5 1.4 1.3 1.3.7.7.3.5.3.3.1.2v.7l-.2.2-.2.2-.3.2-.5.2-.6.1-.7.1h-3.6l-.3.2h-.1v.7l.2.4.3.5.3.6.5.7.8 1.2.7 1 .2.2.5.7.4.8.5.8.4.8.4.8.6 1.3.7 1.8.6 1.9.5 1.7.3 1.2.2.8.3 1.7.3 2.4.3 2 .1 1.8.2 2v1.5l.1.4-.4.3-.4-.3-.9-.8-1-.8-1.2-1-1.5-1-1.7-1.2-2-1.3-1.6-1-1.1-.6-1.2-.6-1.2-.6-1.3-.6-1.2-.6-1.3-.6-1.4-.5-1.3-.5-1.4-.5-1.4-.4-1.4-.3-1.5-.3-1.4-.3-1.5-.1-1.4-.2H629l-.4.2h-.3l-.2.1-.2.2h-.1v.1l-.1.2v1l.2.4v.2l.3.4.3.6.6.8.7 1 .4.4 1 .7 2.1 1.5 2.1 1.5 2.1 1.7 2.2 1.6 2 1.7 2.2 1.8 2.2 1.8 2 1.9 2.2 1.8 2 2 2 1.9 2 2 2 2 2 2 1.8 2 1.7 2 1.6 1.8c-.3-12.8 2-23.8 9.4-30.4l5.1-4.6h.1c23.6-20.1 62.8-11.6 80.1-39.6 5-8.1 15.8-41.4-2.4-41-4 0-32.7 15.4-39 22.2-6.1 6.4-10.5 1.6-14.6-1.9.5-.2 1-.5 1.3-1 2.6-2.9-5-3.5-6.4-2.8l-.5.2a1 1 0 0 0-.5.7v.2c-.5.1-1 .3-1.4.6-10.7 6.3-12.2 1.9-19.7-4.3-8.4-7-10.2-11.2-9.7-23.2.4-11.9 1.7-26.9 1.7-26.9s24.7-9.3 35.4-14.2c25.1-11.5 20.3-35.3 33-56.2 1.8-3 12.6-17.7 11.6-20.8-4.9-15.2-10.6-28.6-12.5-45-2.4-19.8 13.2-9.4 19.7 1 6.8 11.2 10.7 16.2 19.6 21.3.9-4.8 2.2-9.4 3.2-10.5 1.1-1.3 2.4-.6 3.1 1.7 1.2 3.4 3.6 3.7 18 2.7l5.6-.6c-1-5.6-2.8-11-4.3-14.7-1-2.3-9-18.5-9-18.5 13 .1 24.6 15.7 32.3 28.3l4-1.9c9.3-4.7 15.3-6 25.8-6 11.7 0 15.8 1.3 27.6 8.2a51.4 51.4 0 0 1 14.8 11c.4 1.6-.7 2.8-2.4 2.8-2 0 0 3.6 5.4 9.8 4.8 5.6 11.5 17.1 15.3 26.7a67.8 67.8 0 0 1 5.7 18c-.6.6-3.6-.7-6.7-3-5.6-4.2-5.7-4.2-4.2.1.8 2.5 3.4 8.3 5.7 13a51 51 0 0 0 10.2 13.7 61 61 0 0 0 13.5 8c6.4 2.6 6.9 3.4 3.6 4.8-2.2 1-7.7.7-12.2-.7a24 24 0 0 0-9.1-1.8c-.4.5 3 3 7.5 5.6a35.9 35.9 0 0 0 14 4.8c3.1 0 9-2.2 12.9-5 3.9-2.9 8-5.5 9-6s1.3 1.4.6 4.3a36 36 0 0 1-7 11.8 36.3 36.3 0 0 1-13.5 9.2c-5.3 1.7-7 3.2-5.2 4.5 1.5 1 5.8 1.9 9.6 2 4 0 10.9-2 15.5-4.6a32 32 0 0 0 13.4-14c4.1-8.3 5-9 6.2-5.3.7 2.5.7 7.6-.1 11.4-.8 3.8-3 10-4.7 13.8a60.6 60.6 0 0 1-9 13 52.7 52.7 0 0 1-13.5 9.7c-4.2 2-12.4 3.5-18.2 3.5-10.3-.1-10.5 0-7.1 4.3 2 2.4 5.8 5 8.5 5.9 2.8.8 4.5 2.4 3.8 3.6-.7 1.3-3.5 2.2-6.3 2.2s-7.9-1.6-11.3-3.6c-3.4-2-6.7-3.2-7.2-2.5-.6.6 3.6 3.8 9.2 7 5.7 3.4 13 6 16.3 6 3.2 0 9.3-2.5 13.6-5.7 4.2-3.2 8.1-5.4 8.6-4.8.5.6-.5 4.2-2.3 8-1.7 3.8-5.8 9-9 11.5a39.7 39.7 0 0 1-11.5 6.1c-4.2 1.2-5 2.1-3 3.6 1.6 1 5.7 2 9.3 2 3.6 0 9-1 12.3-2.3 3.1-1.3 8.3-5.2 11.5-8.5 3.1-3.3 6.2-8.4 6.9-11.3.6-2.9 2.1-5.2 3.3-5.2 1.2 0 1.6 4.5 1 11.4a52 52 0 0 1-6.5 20.6c-3 5-9.2 12-13.8 15.3a37.3 37.3 0 0 1-19.9 7.2c9.5 8.1 18.5 17.3 25.6 26.2 14.1 8.6 30.3 55 29.9 71.2-.7 24.8-12.6 86.4-45.5 105.8 11.9 28.7 24.6 79.8 25 104.5H201.9v-.2l-14.2.2H6.3Zm920.3-136.6c7-13.9 16.4-27.3 19-31.9a38.7 38.7 0 0 0 3.6-31.7 241 241 0 0 1-18.6 52 49 49 0 0 0-4 11.6Zm-872-2.7c-7.9 0-21-.3-28-4.6a25 25 0 0 1-5.7-5.3l.8-.5c.5-.3 6-4.8 6.2-4.5 1 2.9 2 3.8 5 5.6 1.3.8 2.6 1 3.9 1.1 4.5 0 9.3-3.7 13.4-6.5 1-.8 4.2-4.4 1.6-2.6-6 4.3-9.5 8.5-16.9 7-3.4-.8-5-6.5-5.7-9.9.3 0 .8-.3 1.3-.8 2.7-3 2.4-3.2-1.6-3.4-5-.2-4.1.8-1 3.6-1 2.6-2.7 6.7-4 7.2-1.1.4-2.8 2-3.5 3.1-3-3.8-5.6-8.4-7.5-12.6a85 85 0 0 1-6 .4c-.5 0-1.3-.5-1.8-1-.5-.6-.8-1-.7-1.1l7.5-.7-.7-1.7c-.4-.8-.5-1.5-.5-2.1a350.3 350.3 0 0 0-8.2-.2c-.5 0-1-.6-1.3-1-.5-1-.5-1 10-.9.8-1.6 2.4-2.8 2.2-5.1-.4-6.3-.1-10.5 1.2-16.6 1-4.5-3.3-11-.8-15 1.7-3 4.6-6 8-8.8-1.3-7.3-3.8-14.5-5.1-22-.5-2.7-3-11.9-.2-14 .8-.5 5.3 6.7 5.8 7.5 5.2 8.2 8 15.2 16.6 19.3a21 21 0 0 1 3.6-.6c5.3-.3 11 .6 16.5 2.3l-.6-.8h1c6.6 0 11-13.6 14-18 4.6-6.4 10.1-7.9 11.6 1.4 1.9 11.6 5.7 20 10.6 30.4 3.2 6.6 2.9 7-1 13.5l-.6 1c1.8 4.4 3 9.1 3.9 14.2 1.7 9.9-5 25.3-5 25.3s-25.3 17.6-38.3 17.4Zm98.7-17.4c-8-.1-21-.4-28-4.7A43.5 43.5 0 0 1 112 390l-4.7.3c-.6 0-1.6-.6-2.2-1-.6-.6-1-1-.7-1.1l6.5-.5a66.9 66.9 0 0 1-1.4-4 321.3 321.3 0 0 0-7.4-.2c-.5-.1-1.2-.6-1.5-1.1-.6-.9-.5-1 9.1-.8.7-2 2.7-3.2 2.5-5.8-.5-6.2-.1-10.4 1.1-16.6 1-4.5-3.3-11-.8-15 1.8-2.9 4.6-6 8-8.7-1.3-7.3-3.7-14.6-5-22-.6-2.8-3.1-12-.2-14 .7-.6 5.3 6.6 5.8 7.4 5.2 8.3 7.9 15.2 16.5 19.3a21 21 0 0 1 3.6-.5c5.3-.4 11 .5 16.6 2.2l-.6-.8h1c6.6 0 11-13.5 14-17.9 4.6-6.5 10.1-8 11.6 1.4a105 105 0 0 0 10.6 30.3c3.1 6.7 2.8 7.1-1 13.5l-.6 1c1.8 4.4 3 9.1 3.9 14.2 1.6 10-5.1 25.3-5.1 25.3s-25.3 17.6-38.2 17.5Z"/>
    </g>
    <path id="subtitle" fill="#111" fill-rule="evenodd" stroke="none" d="M806.1 731.7c-3 0-5.6-.6-7.9-1.7a16.6 16.6 0 0 1-5.8-4.5 20 20 0 0 1-3.5-6.7 26.6 26.6 0 0 1 0-16 20 20 0 0 1 3.5-6.8 16.8 16.8 0 0 1 13.7-6.2 16.9 16.9 0 0 1 13.7 6.2 20 20 0 0 1 3.5 6.7 26.6 26.6 0 0 1 0 16.1 20 20 0 0 1-3.5 6.7 16.6 16.6 0 0 1-5.8 4.5 17.7 17.7 0 0 1-7.9 1.7Zm37.3 0c-4.8 0-8.4-1.3-10.9-3.9-2.5-2.6-3.8-6.6-3.8-12v-25h1.2v25c0 4.9 1 8.5 3.3 11 2.2 2.5 5.6 3.8 10.2 3.8s8-1.3 10.3-3.8c2.2-2.5 3.3-6.1 3.3-11v-25h1v25c0 5.4-1.2 9.4-3.7 12-2.5 2.6-6.1 3.9-10.9 3.9Zm-168.8-1v-40h17.2c1.5 0 3 .3 4.4.7 1.3.4 2.5 1 3.6 1.9 1 .8 1.8 1.8 2.4 3a10.2 10.2 0 0 1-1.6 10.7 8.8 8.8 0 0 1-6 2.9c1.3.1 2.5.4 3.7.8a9.4 9.4 0 0 1 5.2 5 11.6 11.6 0 0 1-.2 8.9 9.3 9.3 0 0 1-2.7 3.4 17.8 17.8 0 0 1-9.5 2.8h-16.5Zm45.5 0V714L704 690.8h1.4l15.3 22 15.4-22h1.3l-16.2 23.1v16.9h-1Zm33.1 0v-40h14c2 0 4 .4 6 1s3.9 1.7 5.5 3.2a17 17 0 0 1 4 6.1c1 2.6 1.5 5.9 1.5 9.8a24 24 0 0 1-1.5 9.2 16.7 16.7 0 0 1-10.2 9.7 22 22 0 0 1-7 1h-12.3Zm110 0v-40h17.2c1.5 0 3 .3 4.4.7 1.3.4 2.5 1 3.6 1.9 1 .8 1.8 1.8 2.4 3a10.2 10.2 0 0 1-1.6 10.7 8.8 8.8 0 0 1-6 2.9c1.3.1 2.5.4 3.7.8a9.4 9.4 0 0 1 5.2 5 11.6 11.6 0 0 1-.2 8.9 9.3 9.3 0 0 1-2.7 3.4 17.8 17.8 0 0 1-9.5 2.8h-16.5Zm34 0v-40h1.2v39h23.3v1h-24.5Zm26.4 0v-40h26.6v1.2h-25.5v17.5h24v1h-24v19.2h25.7v1.2h-26.8Zm44 0 16.2-40h1.4l15.8 40h-1.2l-5.3-13.1h-20.4l-5.3 13.2h-1.2Zm-161.5-.1a16.6 16.6 0 0 0 12.7-5.6 20 20 0 0 0 3.4-6.3 26.3 26.3 0 0 0 0-15.9c-.8-2.4-2-4.5-3.4-6.3a15.5 15.5 0 0 0-5.5-4 17 17 0 0 0-7.2-1.6 17 17 0 0 0-7.2 1.5c-2.1 1-4 2.4-5.4 4.1a18.8 18.8 0 0 0-3.4 6.3 26.3 26.3 0 0 0 0 16c.8 2.4 2 4.4 3.4 6.2 1.5 1.8 3.3 3.1 5.4 4.1a17 17 0 0 0 7.2 1.5Zm-130.4-1h15.9c1.6 0 3.2-.2 4.6-.5 1.4-.4 2.6-1 3.6-1.8s1.8-1.8 2.4-3a10 10 0 0 0 0-8.8 8.5 8.5 0 0 0-2.6-2.9c-1-.7-2.3-1.3-3.7-1.6-1.3-.3-2.7-.5-4.1-.5h-16.1v19.1Zm78.6 0h11.4c2.4 0 4.6-.3 6.7-1.1a15.3 15.3 0 0 0 9.3-9.4 21 21 0 0 0 1.4-8.3 26 26 0 0 0-1.4-9.3c-1-2.4-2.2-4.3-3.7-5.8a12.7 12.7 0 0 0-5.2-3 21 21 0 0 0-5.9-.8h-12.6v37.7Zm110 0h16c1.6 0 3-.2 4.5-.5 1.4-.4 2.6-1 3.6-1.8s1.9-1.8 2.5-3c.5-1.3.8-2.7.8-4.3a8.4 8.4 0 0 0-3.6-7.3c-1-.8-2.2-1.4-3.5-1.7a20 20 0 0 0-4.2-.5h-16v19.1Zm110.3-13.1H994l-9.6-24.6-10 24.6Zm-20-.2v-1.1h9.7v1.1h-9.8Zm-278.9-7h16c1.4 0 2.7-.1 4-.5a9.2 9.2 0 0 0 5.4-4.3 8 8 0 0 0 .8-3.8c0-1.5-.3-2.8-.8-3.9s-1.2-2-2.1-2.7c-1-.8-2-1.3-3.3-1.7-1.2-.3-2.5-.5-4-.5h-16v17.5Zm188.6 0h16c1.4 0 2.7-.1 4-.5a9.2 9.2 0 0 0 5.4-4.3 8 8 0 0 0 .8-3.8 8 8 0 0 0-2.9-6.6c-1-.8-2-1.3-3.2-1.7-1.3-.3-2.6-.5-4-.5h-16v17.5Zm-232.7 20.3v-19.1h23.9v-1.1h-24v-17.5H657v-1.1h-26.5v40h26.7v-1.2Zm-33.7 1.2V712h15c2.4 0 4.2.2 5.6.7a7 7 0 0 1 3.2 2c.8.9 1.3 2 1.5 3.3.2 1.3.4 2.7.4 4.4a93.6 93.6 0 0 0 .4 6.7c0 .7.2 1.3.4 1.7h1.2l-.4-1.4a30.5 30.5 0 0 1-.5-4.8v-2c0-1.7-.1-3.1-.3-4.4a8.9 8.9 0 0 0-1.1-3.3c-.6-1-1.4-1.7-2.4-2.3-1-.5-2.4-1-4.1-1.2 2.8-.7 5-2 6.4-3.7a10 10 0 0 0 2.2-6.7c-.1-3.5-1.1-6-3-7.7-2-1.7-5-2.5-9.2-2.5h-16.4v40Zm0-20V692h15.5c3.8 0 6.6.8 8.3 2.4a8.9 8.9 0 0 1 2.5 6.6c0 1.8-.3 3.3-1 4.5a9.2 9.2 0 0 1-2.4 3.1 10 10 0 0 1-3.6 1.8c-1.4.4-2.8.6-4.3.6Zm-7.7-20v25c0 4.9-1.1 8.5-3.3 11-2.2 2.5-5.6 3.8-10.3 3.8-4.6 0-8-1.3-10.2-3.8-2.2-2.5-3.3-6.1-3.3-11v-25H562v25c0 5.4 1.2 9.4 3.7 12 2.5 2.6 6.2 3.9 11 3.9 4.7 0 8.4-1.3 10.9-3.9 2.5-2.6 3.7-6.6 3.7-12v-25Zm-59.6 1.1H545v38.9h1.2v-38.9h14.4v-1.1h-29.9Zm-31.8-1.1v40h1.1v-38.6h.1l27.4 38.6h1.6v-40h-1v38.6h-.2l-27.3-38.6Zm-28.4 38.8v-19.1h24v-1.1h-24v-17.5h25.4v-1.1h-26.5v40H496v-1.2Zm-3.7-38.8L452 729.3l-15.2-38.5h-1l15.6 40h1.2l15.2-40Zm-61.6 38.8V692h12.6c2 0 4 .3 6 .8a14 14 0 0 1 5.1 3 16 16 0 0 1 3.7 5.8 26 26 0 0 1 1.4 9.3c0 3.2-.5 6-1.4 8.3-.9 2.4-2.1 4.4-3.7 6a15.3 15.3 0 0 1-5.6 3.4c-2 .8-4.3 1.1-6.7 1.1Zm-1.1-38.8v40h12.3a22 22 0 0 0 7-1.2 16.7 16.7 0 0 0 10.1-9.6c1-2.6 1.6-5.6 1.6-9.2 0-4-.5-7.2-1.5-9.8a17 17 0 0 0-4-6.1 13.9 13.9 0 0 0-5.5-3.2c-2-.6-4-1-6-1Zm-28.7 26.8h20.3l5.3 13.2h1.2l-15.7-40h-1.5l-16.2 40h1.2Zm19.9-1.1h-19.5l9.9-24.6ZM329 729.6v-19.1h23.9v-1.1h-24v-17.5h25.5v-1.1h-26.6v40h26.8v-1.2Zm-33.7 1.2V712h15c2.4 0 4.2.2 5.6.7a7 7 0 0 1 3.2 2c.7.9 1.2 2 1.5 3.3.2 1.3.3 2.7.3 4.4a93.6 93.6 0 0 0 .4 6.7l.5 1.7h1.2a30.5 30.5 0 0 1-.9-6.1v-2.2c0-1.6-.1-3-.3-4.3a8.9 8.9 0 0 0-1.1-3.3c-.6-1-1.4-1.7-2.4-2.3-1-.5-2.4-1-4.1-1.2 2.8-.7 5-2 6.4-3.7 1.5-1.8 2.2-4 2.1-6.7 0-3.5-1-6-3-7.7-2-1.7-5-2.5-9.2-2.5h-16.3v40Zm0-20V692h15.5c3.8 0 6.6.8 8.2 2.4a8.9 8.9 0 0 1 2.6 6.6c0 1.8-.3 3.3-1 4.5a9.2 9.2 0 0 1-2.5 3.1 10 10 0 0 1-3.6 1.8c-1.3.4-2.8.6-4.2.6Zm-42.2 0c0-2.9.4-5.6 1.2-8a20 20 0 0 1 3.6-6.8 16.9 16.9 0 0 1 13.7-6.2 16.9 16.9 0 0 1 13.7 6.2 20 20 0 0 1 3.5 6.7 26.6 26.6 0 0 1 0 16.1 20 20 0 0 1-3.6 6.7 16.6 16.6 0 0 1-5.7 4.5c-2.3 1.1-5 1.7-8 1.7s-5.6-.6-7.9-1.7a16.6 16.6 0 0 1-5.7-4.5 20 20 0 0 1-3.6-6.7c-.8-2.5-1.2-5.2-1.2-8Zm1.2 0c0 2.8.4 5.5 1.2 8 .8 2.4 2 4.4 3.4 6.2 1.5 1.8 3.3 3.1 5.4 4.1a17 17 0 0 0 7.3 1.5 17 17 0 0 0 7.2-1.5c2.1-1 4-2.3 5.4-4.1 1.5-1.8 2.6-3.8 3.4-6.3a26.3 26.3 0 0 0 0-15.9c-.8-2.4-2-4.5-3.4-6.3a15.5 15.5 0 0 0-5.4-4 17 17 0 0 0-7.2-1.6 17 17 0 0 0-7.3 1.5c-2.1 1-3.9 2.4-5.4 4.1a18.8 18.8 0 0 0-3.4 6.3c-.8 2.4-1.2 5.1-1.2 8Zm-2.5-20L237 729.3h-.1l-15.1-38.5h-1l15.5 40h1.3l15.2-40Zm-44.1 0-15.4 22-15.3-22h-1.4l16.1 23.1v16.9h1.1v-16.9l16.2-23.1Zm-60 40V712h15c2.4 0 4.2.2 5.6.7a7 7 0 0 1 3.2 2c.7.9 1.2 2 1.5 3.3.2 1.3.3 2.7.3 4.4a93.8 93.8 0 0 0 .4 6.7c.1.7.3 1.3.5 1.7h1.2a30.5 30.5 0 0 1-.9-6.1v-2.2c0-1.6-.1-3-.3-4.3a8.9 8.9 0 0 0-1.1-3.3c-.6-1-1.4-1.7-2.5-2.3-1-.5-2.4-1-4-1.2 2.8-.7 4.9-2 6.4-3.7 1.5-1.8 2.2-4 2.1-6.7 0-3.5-1-6-3-7.7-2-1.7-5-2.5-9.2-2.5h-16.3v40Zm0-20V692h15.5c3.8 0 6.5.8 8.2 2.4a8.9 8.9 0 0 1 2.6 6.6c0 1.8-.3 3.3-1 4.5a9.2 9.2 0 0 1-2.5 3.1 10 10 0 0 1-3.6 1.8c-1.3.4-2.8.6-4.3.6Zm-33.7 20V712h15c2.4 0 4.3.2 5.6.7a7 7 0 0 1 3.2 2c.8.9 1.3 2 1.5 3.3.3 1.3.4 2.7.4 4.4a93.7 93.7 0 0 0 .4 6.7c0 .7.2 1.3.4 1.7h1.3c-.2-.3-.4-.8-.5-1.4a30.5 30.5 0 0 1-.4-4.8l-.1-2c0-1.7-.1-3.1-.3-4.4a8.9 8.9 0 0 0-1.1-3.3c-.6-1-1.4-1.7-2.4-2.3-1-.5-2.4-1-4.1-1.2 2.8-.7 5-2 6.4-3.7a10 10 0 0 0 2.2-6.7c-.1-3.5-1.1-6-3-7.7-2-1.7-5-2.5-9.2-2.5h-16.4v40Zm0-20V692h15.5c3.9 0 6.6.8 8.3 2.4a8.9 8.9 0 0 1 2.6 6.6 10 10 0 0 1-1 4.5 9.2 9.2 0 0 1-2.5 3.1 10 10 0 0 1-3.6 1.8c-1.4.4-2.8.6-4.3.6Zm-7.7-20v25c0 4.9-1.1 8.5-3.3 11-2.2 2.5-5.6 3.8-10.2 3.8-4.7 0-8-1.3-10.3-3.8-2.2-2.5-3.3-6.1-3.3-11v-25h-1.1v25c0 5.4 1.2 9.4 3.7 12 2.5 2.6 6.2 3.9 11 3.9 4.7 0 8.4-1.3 10.9-3.9 2.5-2.6 3.7-6.6 3.7-12v-25Zm-53.5 18.6v-17.5h23.5v-1.1H51.7v40h1.1v-20.3h21.3v-1.1ZM8 717.6h20.4l5.2 13.2h1.2l-15.7-40h-1.5l-16.2 40h1.2Zm19.9-1.1H8.4l9.9-24.6Z"/>
    <path id="title" fill="#111" fill-rule="evenodd" stroke="none" d="M771.6 665c-.1 0-.3 0-.4-.2a.8.8 0 0 0-.5-.3l-.6-.1-.2-.3.2-.4c.2 0 .3-.2.3-.3l-5.3-.1c-4.6 0-5.3 0-5.8-.3-.3-.1-.6-.3-.7-.5l.1-.6c.1-.2.4-.5.7-.6l1.4-.5c.8-.2 1.8-.2 4-.2h2.5l-5.5-1.7a150 150 0 0 0-8.7-2.2 72.2 72.2 0 0 0-12.4-1 51.5 51.5 0 0 0-6.3.9l-2 .8-1.2 1c-.4.6-.4.7-.3 1.6 0 .5.2 1.1.5 1.5a4 4 0 0 0 2.4 1.8c.3.1 1.4.2 2.4.1l2.4.1.8.3v.3l-1.3.4a164 164 0 0 1-3.6.5 11.2 11.2 0 0 1-3.2-.6 5.4 5.4 0 0 1-2.4-2c-.3-.5-.7-1.2-.8-1.7-.2-.8-.3-1 0-1.9 0-.5.4-1.4.7-1.8a6 6 0 0 1 1.3-1.6 10.5 10.5 0 0 1 4.5-1.9 35.1 35.1 0 0 1 9.2-.7 61.6 61.6 0 0 1 16.8 2l6 1.2a92.4 92.4 0 0 0-2.8-6 93.1 93.1 0 0 1-3-9.3c0-.2-.5-.2-2.3-.2-1.6 0-2.3 0-2.8.2l-1.1.6-.7.8-.8 1-.8.4c-.2 0-.4-.2-.7-.5l-.5-.9-.1-1 .1-.8.4-.7.7-.5.5-.4.2-.7c.1-.3.4-.6.8-1 .7-.5.8-.7 1.1-1.7.4-1 .5-1.2.5-2.1l-.4-2.8c-.3-1.6-.3-1.8-.2-4.5l-.1-3.7c-.1-.5.3-2 .2-3.6v-.3l-.3-1.4.1-.4-.7-7c0-.6-.3-1.5-.6-2-.2-.7-.4-1.2-.4-1.8a35.8 35.8 0 0 1-.1-3.6l-.3-2.1-.2-2c0-.5 0-1 .2-1.3 0-.4.3-.9.5-1.2l.6-1.7c.3-1 .3-1 .8-1.4l.8-.2 1.5 1.3a6.5 6.5 0 0 0 2.4 1.8c.5.3 1.4.6 1.9.7.8.1 1 .2 1.5.7a69.1 69.1 0 0 1 3.2 3.4c0 .2 0 .5.2.7.3.3.3.4.2.8v.7l.4.4.6-.4c.3-.3.6-.5 1-.5h1.2c.5 0 .7.2 1 .6.4.3.6.6.8 1l.1 1.2c0 .4-.1 1-.3 1.3-.1.5-.4 1-.8 1.5-.3.4-1 1-1.5 1.3-.8.6-.9.7-1 1v1.6a24.4 24.4 0 0 0 1 4l.8.8 1.8 1a41.6 41.6 0 0 1 10.8 7.7 34.3 34.3 0 0 1 5 7 34.6 34.6 0 0 1 2 5.2 31.5 31.5 0 0 1 .6 8.4 9.7 9.7 0 0 1 5.6 6.8c.1.6.2 1.2 0 1.8l-.2 1.8a12 12 0 0 1-1 2.1c-.6 1-1 1.6-1.7 2.3-.8.7-1.4 1-2.4 1.4a20.8 20.8 0 0 1-4.3 1.1l-.6.3-2.5.4-4.3.3c-2.6.1-2.8.1-4.5.7a83.7 83.7 0 0 0-2.1.7Zm-474.7-3.6c-7.4 0-14-1.3-19.5-4a30 30 0 0 1-13-11.9 36 36 0 0 1-4.6-18.5 33.3 33.3 0 0 1 17.9-31.3c5.7-3 12.1-4.4 19.3-4.4 7.5 0 14 1.3 19.6 4a30 30 0 0 1 13 11.9 36 36 0 0 1 4.6 18.5c0 7-1.6 13.2-4.8 18.6a32.7 32.7 0 0 1-13.2 12.6c-5.6 3-12 4.5-19.3 4.5Zm557 0c-4 0-7.2-.8-9.5-2.4a11 11 0 0 1-4.5-6.5l-3.2-13c-.6-2.8-1.3-5-2.2-6.4a7.1 7.1 0 0 0-3.5-3c-1.4-.6-3.1-.9-5.3-.9H822v19c0 2.7.2 4.7.6 6a4 4 0 0 0 2.3 2.6c1 .5 2.9.7 5.3.9v2.2a376.8 376.8 0 0 0-33.4 0v-2.2a17 17 0 0 0 5.4-1 3.9 3.9 0 0 0 2.3-2.5c.4-1.3.6-3.3.6-6v-43.7c0-2.8-.2-4.8-.7-6a4 4 0 0 0-2.2-2.6c-1.1-.5-2.9-.7-5.4-.9v-2.2a250.5 250.5 0 0 0 24.7.3l7.6-.2c9.9 0 17.3 1.5 22.2 4.5a14 14 0 0 1 7.3 12.4c0 2.9-.8 5.6-2.4 8.2a18.9 18.9 0 0 1-8 6.6 43.7 43.7 0 0 1-15 3.8l3.2.3c5.3.7 9.4 1.9 12.5 3.6 3 1.7 5 4.5 6 8.4l2.3 9.8c.5 2 1.1 3.5 1.8 4.4.8.9 1.7 1.3 2.9 1.3 1.5 0 3-.8 4.7-2.4l1.6 1.4c-1.8 2-3.8 3.6-6 4.7-2.3 1-5 1.5-8.3 1.5ZM1 660v-2.2a15 15 0 0 0 5.3-1 4 4 0 0 0 2.3-2.5c.4-1.3.6-3.3.6-6v-54.7a21 21 0 0 0-.6-6 4 4 0 0 0-2.3-2.6 15 15 0 0 0-5.3-.9v-2.2a352.8 352.8 0 0 0 34.7 0v2.2c-2.6.1-4.6.4-5.8.9-1.2.4-2 1.3-2.4 2.6-.5 1.2-.7 3.2-.7 6v56c0 2.3.2 4 .5 5.1.3 1 1 1.8 2 2.2.9.3 2.4.5 4.4.5h5.4c3.3 0 6.4-1 9.2-3 2.8-2 5.1-5 7-8.7 1.9-3.7 3.2-8 3.9-12.9h2.5a164.6 164.6 0 0 0 .4 27.1 1448.6 1448.6 0 0 0-61.2 0Zm106 0v-2.2a17 17 0 0 0 5.4-1 3.9 3.9 0 0 0 2.3-2.5c.4-1.3.6-3.3.6-6v-43.7c0-2.7-.2-4.8-.6-6a4 4 0 0 0-2.3-2.6c-1-.5-2.9-.7-5.4-.9v-2.2a1325.2 1325.2 0 0 0 56.1 0 131.6 131.6 0 0 0-.4 20.1h-2.5a32 32 0 0 0-3.4-10.3 13.5 13.5 0 0 0-5.5-5.5c-2.3-1.2-5-1.7-8.1-1.7h-4c-2 0-3.4.1-4.4.5-.9.3-1.6 1-2 2a13 13 0 0 0-.6 4.6V625h5.2c3.4 0 6-1.2 7.6-3.6a21 21 0 0 0 3.5-8.3h2.5c-.2 2.9-.4 5.8-.4 8.6l.1 4.4c0 3.3.2 7.6.6 13h-2.5c-.5-3.4-1.7-6.3-3.5-8.5-1.8-2.3-4.4-3.4-8-3.4h-5.1v20.3c0 2.8.3 4.9 1 6.2a5.7 5.7 0 0 0 3.5 3c1.6.5 4 .8 7.3 1v2.2a442 442 0 0 0-37 0Zm61.3 0v-2.2a17 17 0 0 0 5.4-1 3.9 3.9 0 0 0 2.3-2.5c.4-1.3.6-3.3.6-6v-43.7c0-2.7-.2-4.8-.7-6a4 4 0 0 0-2.2-2.6c-1.1-.5-2.9-.7-5.4-.9v-2.2a1325.2 1325.2 0 0 0 56.1 0 131.5 131.5 0 0 0-.4 20.1h-2.5a32 32 0 0 0-3.4-10.3 13.5 13.5 0 0 0-5.5-5.5c-2.3-1.2-5-1.7-8.1-1.7h-4c-2 0-3.4.1-4.4.5-1 .3-1.6 1-2 2a13 13 0 0 0-.6 4.6V625h5.1c3.4 0 6-1.2 7.7-3.6a21 21 0 0 0 3.5-8.3h2.5c-.2 2.9-.4 5.8-.4 8.6v4.4c0 3.3.3 7.6.7 13h-2.5c-.5-3.4-1.7-6.3-3.5-8.5-1.8-2.3-4.4-3.4-8-3.4h-5.1v23c0 2 .2 3.6.6 4.6.4 1 1 1.7 2 2 1 .4 2.4.5 4.3.5h4.8a19 19 0 0 0 8.8-1.9c2.5-1.3 4.5-3.3 6-6.2 1.7-3 2.9-6.8 3.7-11.6h2.5a153.5 153.5 0 0 0 .4 22.3 1323 1323 0 0 0-58.3 0Zm172.2 0v-2.2a17 17 0 0 0 5.4-1 3.9 3.9 0 0 0 2.3-2.5c.3-1.3.5-3.3.5-6v-43.7c0-2.7-.2-4.8-.6-6a4 4 0 0 0-2.2-2.6c-1.1-.5-3-.7-5.4-.9v-2.2a1325.2 1325.2 0 0 0 56.1 0 131.5 131.5 0 0 0-.4 20.1h-2.6a32 32 0 0 0-3.3-10.3 13.5 13.5 0 0 0-5.6-5.5c-2.2-1.2-5-1.7-8-1.7h-4.1c-2 0-3.3.1-4.3.5-1 .3-1.6 1-2 2a13 13 0 0 0-.7 4.6V625h5.2c3.4 0 6-1.2 7.7-3.6a21 21 0 0 0 3.5-8.3h2.5c-.3 2.9-.4 5.8-.4 8.6v4.4c0 3.3.3 7.6.7 13h-2.5c-.6-3.4-1.7-6.3-3.5-8.5-1.8-2.3-4.5-3.4-8-3.4h-5.2v20.3c0 2.8.4 4.9 1 6.2a5.7 5.7 0 0 0 3.5 3c1.7.5 4.1.8 7.3 1v2.2a442 442 0 0 0-36.9 0Zm93.5 0v-2.2c3.2-.2 5.6-.5 7.1-1a5 5 0 0 0 3.1-3c.6-1.4.9-3.6.9-6.7v-51.6h-3.4a16 16 0 0 0-8.7 2.1c-2.2 1.4-4 3.7-5.5 7a58.3 58.3 0 0 0-3.7 13h-2.5a151 151 0 0 0-.5-24.7 1143.6 1143.6 0 0 0 65.4 0 170 170 0 0 0-.4 24.7h-2.5a60 60 0 0 0-3.8-13 15.2 15.2 0 0 0-5.5-7 16 16 0 0 0-8.6-2.1h-3.5V647c0 3.1.3 5.3 1 6.7a5 5 0 0 0 3 3c1.5.5 4 .8 7.2 1v2.2c-4-.3-10.6-.4-19.9-.4-9.3 0-15.7.1-19.2.4Zm58 0v-2.2a17 17 0 0 0 5.3-1 3.9 3.9 0 0 0 2.3-2.5c.4-1.3.6-3.3.6-6v-43.7c0-2.7-.2-4.8-.6-6a4 4 0 0 0-2.3-2.6c-1-.5-2.9-.7-5.3-.9v-2.2a351.4 351.4 0 0 0 33.4 0v2.2c-2.6.2-4.4.4-5.5 1a4 4 0 0 0-2.2 2.5 22 22 0 0 0-.6 6v20.1h28.3v-20c0-2.8-.2-4.9-.6-6.1a4 4 0 0 0-2.3-2.6 17 17 0 0 0-5.4-.9v-2.2a352.8 352.8 0 0 0 33.4 0v2.2c-2.5.2-4.3.4-5.4 1a4 4 0 0 0-2.2 2.5 21 21 0 0 0-.6 6v43.7c0 2.7.2 4.7.6 6a4 4 0 0 0 2.3 2.6c1.1.5 3 .7 5.3.9v2.2a352.2 352.2 0 0 0-33.4 0v-2.2a17 17 0 0 0 5.4-1 4 4 0 0 0 2.3-2.5c.4-1.3.6-3.3.6-6v-21.4h-28.3v21.4c0 2.7.2 4.7.6 6a4 4 0 0 0 2.3 2.6c1.1.5 2.9.7 5.3.9v2.2a350.8 350.8 0 0 0-33.3 0Zm85 0v-2.2a17 17 0 0 0 5.3-1 3.9 3.9 0 0 0 2.3-2.5c.4-1.3.6-3.3.6-6v-43.7c0-2.7-.2-4.8-.7-6a4 4 0 0 0-2.2-2.6c-1.1-.5-2.9-.7-5.4-.9v-2.2a1325.2 1325.2 0 0 0 56.1 0 131.6 131.6 0 0 0-.4 20.1H630a32 32 0 0 0-3.4-10.3 13.5 13.5 0 0 0-5.6-5.5 16.6 16.6 0 0 0-8-1.7h-4c-2 0-3.4.1-4.4.5-1 .3-1.6 1-2 2a13 13 0 0 0-.6 4.6V625h5.1c3.4 0 6-1.2 7.7-3.6a21 21 0 0 0 3.5-8.3h2.5c-.2 2.9-.4 5.8-.4 8.6v4.4c0 3.3.3 7.6.7 13h-2.5c-.5-3.4-1.7-6.3-3.5-8.5-1.8-2.3-4.4-3.4-8-3.4H602v23c0 2 .2 3.6.6 4.6.4 1 1 1.7 2 2 1 .4 2.4.5 4.3.5h4.7a19 19 0 0 0 9-1.9 15 15 0 0 0 6-6.2c1.6-3 2.8-6.8 3.6-11.6h2.5a153.5 153.5 0 0 0 .4 22.3 1323 1323 0 0 0-58.3 0Zm-492 0c-3 0-6.2-.2-7-.5-.8-.2-6-.1-6.5-.5s-.8-1.3-1-2.4c-.5-3.2 4.7-2.1 4.4-5.4-2-19.1 1-21.1 2.2-22.7a21 21 0 0 1 4.4-4.5c1.3-.8 2.7-2 3.2-2.7.5-.7 1.1-1.9 1.3-2.6.3-.8.4-3 .4-4.7 0-3.1 0-3.3-1.3-5a44.4 44.4 0 0 1-4.3-7.6c-.3-.9-.5-2.3-.5-3 0-1 .1-1.5.3-1.5l3.5 3.3c1.8 1.7 3.5 3.6 3.8 4.4.5 1.2.5 1.2.4-.5l-.7-4.3a32 32 0 0 1-.6-5 7 7 0 0 1 .3-2.5c.2-.1 1 .7 1.7 1.8a19 19 0 0 1 2 4.2c.4 1.2.8 3.9 1 5.9.2 3.6.2 3.6 2.1 4.4 1.5.7 2.3 1.4 3.7 3.4 1 1.4 2 3 2 3.5a7 7 0 0 1-.1 2.7c-.3 1-.8 2.2-1.3 2.8-.6.6-1.4 1.1-2 1.1-1 0-1 0-.8 1.6l.6 5c.3 2.7.3 4.2 0 6.5a49 49 0 0 1-1 5 30 30 0 0 0-1 5.2 156 156 0 0 0-.6 6.7c-.2 3.4-.2 3.4 1.1 4 .8.3 1.2 1.2.8 2.4-1 2.5-3.2 1.2-4.7 0l-.2.8c-.1.6-1.1.7-5.7.7Zm582.5 0v-2.2c2.5-.2 4.2-.4 5.4-1a4 4 0 0 0 2.2-2.5c.5-1.3.7-3.3.7-6v-54.7c0-2.8-.2-4.8-.7-6a4 4 0 0 0-2.2-2.6c-1.2-.5-3-.8-5.4-.9v-2.2a315 315 0 0 0 26.6.2h7.4a46 46 0 0 1 17 2.6 22 22 0 0 1 10.2 7.6c2.3 3.3 3.4 7.1 3.4 11.5 0 4-1 7.9-3 11.6-2 3.7-5.6 6.8-10.5 9.3-5 2.5-11.4 3.7-19.5 3.7h-5.8v19.2c0 3 .3 5.1 1 6.5a5 5 0 0 0 3.2 2.7c1.6.4 4.2.7 7.6.7v2.5a932.3 932.3 0 0 0-37.6 0Zm214 0v-2.2c3.2-.2 5.6-.5 7.1-1a5 5 0 0 0 3.2-3c.5-1.4.8-3.6.8-6.7v-51.6h-3.4a16 16 0 0 0-8.7 2.1c-2.2 1.4-4 3.7-5.5 7a58.3 58.3 0 0 0-3.6 13h-2.6a151.1 151.1 0 0 0-.5-24.7 1143.6 1143.6 0 0 0 65.4 0 170 170 0 0 0-.4 24.7h-2.5a60 60 0 0 0-3.7-13 15.3 15.3 0 0 0-5.6-7 16 16 0 0 0-8.6-2.1h-3.4V647c0 3.1.2 5.3.8 6.7a5 5 0 0 0 3.1 3c1.6.5 4 .8 7.2 1v2.2c-4-.3-10.6-.4-19.9-.4-9.3 0-15.7.1-19.2.4Zm70 0v-2.2c3-.2 5.2-.5 6.6-1a4.6 4.6 0 0 0 2.9-2.7c.5-1.4.8-3.5.8-6.5v-11.9L942 601.3a20.5 20.5 0 0 0-3.4-4.5 6 6 0 0 0-3-1.6v-2.4c4.5.4 8.9.6 13 .6 5.8 0 12.3-.2 19.4-.6v2.4c-2.2 0-4 .2-5.2.5-1.3.4-1.9 1.2-1.9 2.4 0 1 .4 2 1.2 3.5l15 26 7-12.9c2.9-5.3 4.3-9.5 4.3-12.7 0-4.3-2.8-6.7-8.3-7v-2.2a262.1 262.1 0 0 0 20.8 0v2.2c-1.5.7-3 2-4.5 3.7a58.5 58.5 0 0 0-5.3 8.1L978.7 630v17.6c0 3 .2 5.1.7 6.5a4.6 4.6 0 0 0 2.9 2.7c1.3.5 3.5.8 6.6 1v2.2c-3.9-.3-10.2-.4-19-.4-9 0-15 .1-18.4.4Zm-654.1-.5c3.8 0 7.2-1.4 10-4.2 3-2.8 5.2-6.7 6.8-11.8a58 58 0 0 0 2.4-17.3c0-6.5-1-12.3-2.7-17.3-1.8-5-4.2-8.8-7.2-11.5-3-2.7-6.4-4-10-4a14 14 0 0 0-10.2 4.2 27.7 27.7 0 0 0-6.7 11.8 57 57 0 0 0 .3 34.5c1.8 5 4.2 8.9 7.2 11.6 3 2.7 6.4 4 10 4Zm489.7-1.8.8-.6c.4-.3.8-1 1-1.4.4-.5.5-1 .5-1.8a5 5 0 0 0-.2-1.5c0-.3-.3-.7-.7-1.1a59 59 0 0 1-1.3 4.6l-.1 1.8Zm-696.8-.3-.2-.7-.5-2.7c-.2-2-.2-2-.8-.8-.3.7-1 1.7-1.4 2.3-.9 1-.9 1 .4 1a4 4 0 0 1 2 .6l.5.3ZM822 627h4.7a16 16 0 0 0 8.8-2c2-1.4 3.5-3.2 4.3-5.5.7-2.4 1.1-5.2 1.1-8.5 0-5.3-1-9.3-3-12-2.1-2.6-5.5-4-10.2-4-1.6 0-2.8.3-3.6.8-.8.5-1.4 1.5-1.7 2.8-.3 1.3-.4 3.3-.4 6V627Zm-128.8-.9h4.7c6 0 10.2-2 12.4-5.7 2.3-3.8 3.4-9 3.4-15.6 0-7.1-1-12.4-3.2-15.7-2-3.4-5.6-5-10.5-5-2 0-3.4.2-4.3.7-1 .5-1.6 1.4-2 2.7-.3 1.3-.5 3.3-.5 6V626Z"/>
  </g>
</svg>
