<?xml version="1.0" encoding="UTF-8"?>
<!-- Generated by Pixelmator Pro 3.2.3 -->
<svg width="231" height="400" viewBox="0 0 231 400" xmlns="http://www.w3.org/2000/svg" xmlns:xlink="http://www.w3.org/1999/xlink">
    <path id="Path" fill="#000000" fill-opacity="0.08492" fill-rule="evenodd" stroke="none" d="M 194.658234 652.192078 C 191.734177 652.192078 190.898743 651.774536 189.645569 651.356995 C 187.974686 650.521912 187.556961 650.521912 183.379745 650.939453 L 176.278488 651.356995 L 170.848099 650.10437 L 164.582275 649.269287 C 161.240509 648.851807 159.98735 648.851807 158.734177 648.016724 C 155.678711 645.900146 153.230545 643.021179 151.632919 639.665955 C 150.033493 635.972534 149.181656 631.999146 149.126587 627.974976 L 150.79747 622.964478 C 151.215195 621.711914 152.886078 620.041748 154.139236 618.789124 L 158.316452 615.448853 L 161.658234 610.438416 L 164.582275 602.087646 C 168.485947 586.75647 171.002411 571.105347 172.101273 555.323608 C 172.956223 545.739807 173.513443 536.131897 173.772156 526.51355 L 173.354431 516.910217 L 171.265823 510.229645 C 168.746033 504.035522 165.522339 498.151428 161.658234 492.693115 C 152.229767 477.348236 141.908218 462.569885 130.746841 448.434235 C 126.544266 441.364624 122.642059 434.12085 119.050636 426.722321 C 114.348221 418.500824 110.162895 409.994446 106.51899 401.252594 L 103.59494 405.84549 C 97.801262 418.903137 93.729202 432.657745 91.481018 446.764099 L 91.898735 455.532349 C 92.671562 460.69458 94.074425 465.742645 96.075951 470.56369 L 101.506332 482.672241 C 105.265823 489.770355 105.265823 490.187897 105.265823 492.693115 L 104.848106 497.286011 L 104.848106 501.878906 L 106.101265 508.559509 L 106.936714 513.569946 L 108.607597 516.075195 C 109.860764 517.327759 109.860764 517.7453 109.860764 518.997925 L 108.607597 526.51355 C 105.263023 539.597778 100.646111 552.323669 94.822784 564.509399 C 90.814995 574.435425 87.054344 584.459412 83.544304 594.572021 C 78.600075 607.156433 74.278389 619.976379 70.59494 632.985352 L 68.088608 636.743225 L 65.164558 638.830933 C 58.28508 640.249634 51.29845 641.087646 44.278481 641.336121 C 33.833893 641.361694 23.389555 641.222534 12.949367 640.918579 C 8.609535 640.376221 4.290356 639.679871 0 638.830933 L -2.924051 635.908142 L -6.265823 631.315247 L -7.936709 626.30481 C -8.35443 623.799561 -8.35443 623.38208 -7.518987 621.711914 L -3.759494 617.119019 C 5.02521 609.459167 14.381444 602.47998 24.227848 596.242188 C 27.56962 593.736938 29.658228 591.649292 31.329113 589.561584 C 38.136024 580.493652 44.145748 570.854431 49.291142 560.751587 C 56.828007 546.146973 64.346992 531.533203 71.848106 516.910217 L 74.354431 515.240112 C 76.025322 514.822571 76.025322 514.405029 76.025322 513.152405 L 75.189873 510.647186 C 75.189873 509.812103 74.354431 508.977051 73.936714 508.559509 L 69.341774 503.966614 C 59.939617 491.559204 50.330685 479.309784 40.518986 467.223389 L 38.012657 462.212952 L 36.759495 458.455109 L 34.253162 455.114838 C 33 454.697296 31.329113 453.027161 30.49367 451.774536 L 27.987341 448.434235 L 24.227848 443.006256 C 22.556961 439.248444 22.556961 439.248444 22.974684 434.237976 C 24.204439 421.032562 26.297522 407.921722 29.240505 394.989563 C 31.536518 384.659332 34.466103 374.480042 38.012657 364.509399 C 41.130787 355.950012 44.757492 347.584381 48.873421 339.457184 C 52.917587 331.116547 50.126583 265.553223 50.126583 265.553223 C 48.802574 246.586304 51.360996 227.54866 57.645573 209.603333 L 60.987343 205.010437 L 64.329117 200.835068 C 64.746841 199.582458 66 198.329849 67.670891 197.07724 L 72.265823 193.736938 L 78.531647 192.066803 L 88.139244 191.23172 C 94.721443 190.839066 101.203217 189.430634 107.354431 187.056366 L 109.443039 184.968674 L 109.860764 180.793304 C 109.443039 177.87056 109.860764 177.87056 106.51899 176.61795 L 99.835449 173.277649 L 103.59494 173.277649 L 99.835449 170.354904 C 95.658234 167.014603 94.405067 164.509384 93.151901 162.839233 C 93.151901 162.839233 94.822784 158.246338 93.569626 159.081406 C 92.734177 159.498947 91.481018 161.169098 90.227852 160.751556 C 88.974686 160.334015 87.303802 155.741119 87.303802 155.741119 C 87.303802 155.741119 87.303802 156.993729 86.050636 156.993729 C 84.379753 156.993729 81.873421 154.48851 81.873421 154.48851 C 81.873421 154.48851 86.468353 154.906052 82.708862 149.060532 C 80.202538 145.302704 78.531647 145.302704 79.784813 143.215027 C 81.037979 141.544891 84.379753 139.874725 84.379753 139.874725 C 84.379753 139.874725 82.291145 139.039673 79.784813 139.457184 C 78.11393 139.457184 76.025322 140.709808 76.025322 140.709808 C 76.025322 140.709808 76.443039 137.787048 77.696205 136.116913 C 78.531647 134.864288 82.708862 135.28183 83.544304 135.28183 C 82.291145 134.864288 76.860764 134.029205 76.443039 129.43631 L 77.278481 126.096039 C 77.278481 126.096039 80.620255 129.43631 81.455696 129.43631 C 83.126587 129.43631 85.215195 130.688934 86.050636 129.43631 C 87.721519 127.348633 86.050636 124.843414 86.468353 122.755737 C 86.886078 116.910217 88.139244 119.832977 88.139244 118.162842 C 88.139244 117.327759 86.050636 117.7453 86.468353 116.075134 C 86.468353 114.82254 88.974686 113.987457 88.974686 113.987457 C 88.974686 113.987457 83.962029 113.569916 83.126587 112.317322 C 82.291145 111.064697 81.873421 107.306885 81.873421 107.306885 L 85.215195 109.394562 C 86.886078 110.229645 88.556961 110.647186 88.556961 109.812103 C 88.139244 108.141968 78.949371 104.801666 71.012657 101.461365 C 57.645573 95.615845 24.645569 75.156555 33 33.402924 C 34.253162 27.557404 41.354431 18.371613 42.607594 17.954071 C 44.278481 16.701447 52.215191 8.76825 61.405067 32.567841 C 64.329117 39.665955 68.088608 45.511475 71.430382 53.444672 C 74.772156 61.377869 78.531647 68.475983 81.037979 70.981201 L 91.898735 82.672241 C 93.151901 83.924835 94.405067 83.089752 95.658234 83.089752 C 97.329117 83.089752 97.329117 84.759918 98.582283 86.012512 C 99 86.847595 101.924049 87.682678 106.51899 87.682678 C 107.772156 87.682678 109.025322 91.022949 109.443039 92.693115 L 109.443039 88.100189 C 109.443039 87.265137 111.531647 87.682678 111.531647 86.847595 C 112.367088 83.507294 112.367088 78.914398 114.455696 78.914398 C 119.414993 79.079132 124.153625 81.003357 127.822784 84.342377 L 127.405067 83.924835 C 126.569626 83.089752 124.481018 80.584534 124.481018 78.914398 C 124.898735 77.661774 126.987343 71.398743 130.746841 70.146118 L 134.088608 70.146118 C 134.088608 70.146118 132.835449 75.574097 133.670883 76.826721 C 134.924057 78.496857 144.113922 79.33194 150.379745 78.914398 C 151.215195 78.914398 151.632919 78.496857 151.632919 77.244263 C 151.632919 76.40918 146.620255 54.697266 151.215195 37.160736 C 159.98735 1.670135 169.177216 0.835052 172.101273 1.252594 C 175.443039 1.670135 187.974686 7.933197 190.898743 45.093933 C 191.316452 48.016693 185.050629 80.584534 179.620255 92.693115 C 175.860764 101.043823 181.291138 98.121063 181.291138 98.121063 C 181.291138 98.121063 182.126587 101.461365 176.278488 103.549042 C 174.607605 103.966583 181.291138 109.812103 180.455704 113.152405 C 180.037979 115.657623 175.443039 118.162842 175.443039 118.162842 L 177.949371 118.997894 C 179.20253 119.415436 180.873413 118.580353 180.873413 118.580353 C 180.873413 118.580353 180.037979 120.66806 178.784805 121.503113 L 175.443039 122.755737 C 175.443039 122.755737 177.113922 123.173279 177.949371 124.425873 C 178.784805 125.678497 178.784805 127.766174 178.784805 127.766174 L 175.443039 126.096039 L 172.936707 126.931091 L 173.354431 132.35907 L 172.518997 137.787048 L 179.620255 136.951965 C 179.620255 136.951965 179.620255 139.874725 178.784805 140.709808 C 177.113922 142.379944 174.18988 143.215027 174.18988 143.215027 C 174.18988 143.215027 178.784805 143.215027 180.037979 144.885162 C 181.291138 146.555313 178.784805 149.895615 178.784805 149.895615 C 178.784805 149.895615 177.531647 147.807922 175.860764 146.972855 C 174.18988 145.720245 172.101273 145.720245 172.101273 145.720245 C 172.101273 145.720245 177.949371 151.148224 169.177216 155.323578 C 168.341782 155.741119 172.101273 159.081406 172.101273 159.081406 C 172.101273 159.081406 168.341782 161.586624 164.582275 158.663879 C 164.164566 158.246338 167.506332 162.839233 162.493668 164.509384 L 156.645569 164.926926 C 155.39241 164.926926 148.708862 170.77243 147.455704 177.87056 C 147.455704 178.705627 146.20253 179.123169 144.531647 179.540695 L 144.531647 179.958237 L 145.367096 186.221283 L 151.215195 192.066803 C 155.052307 195.642517 159.097321 198.988663 163.329117 202.087677 L 173.354431 205.010437 L 181.708862 206.680573 L 185.050629 208.768265 C 186.303802 210.020874 186.721527 210.855942 187.556961 214.196228 L 189.227844 227.974945 C 190.638458 242.574799 191.891693 257.189423 192.98735 271.816284 C 193.905075 279.082397 195.019409 286.322327 196.329117 293.528168 L 200.506332 298.538605 L 205.101273 303.549042 C 205.518997 304.801666 205.518997 305.219208 204.683548 308.141968 L 203.012665 312.734863 L 202.59494 334.446747 L 202.59494 356.158661 C 203.012665 357.828796 204.265823 359.081421 209.278488 364.509399 C 214.708862 369.519836 215.962021 371.189972 217.632919 374.112732 C 219.303802 377.035492 219.303802 377.453033 222.645569 379.123169 C 225.569626 380.375763 225.98735 380.793304 226.822784 383.298523 C 227.658234 384.968689 227.658234 386.221283 227.658234 389.561584 C 227.658234 392.066803 227.658234 394.989563 226.822784 397.912323 C 225.704086 402.58371 224.309219 407.184692 222.645569 411.69101 L 219.303802 416.283905 C 216.620941 419.172729 213.975143 422.095734 211.367096 425.052185 L 206.354431 425.052185 C 201.428467 424.182495 196.548981 423.067657 191.734177 421.711884 L 191.316452 429.227539 C 191.95401 438.70813 192.789642 448.174347 193.822784 457.620056 L 195.911392 465.135712 C 196.746841 468.058472 198 470.146149 199.253174 472.651367 C 202.788986 477.556763 206.552612 482.294006 210.531647 486.847595 C 211.784805 488.517761 213.455704 489.770355 215.126587 490.605438 L 218.468353 492.275574 L 218.468353 493.528198 C 217.632919 493.94574 217.632919 494.363251 218.468353 497.286011 C 218.886078 500.208771 218.886078 500.626312 218.050629 503.966614 C 217.215195 506.054291 216.79747 508.977051 216.379745 512.734863 L 216.379745 531.106445 C 216.798523 547.847046 217.913422 564.562927 219.721527 581.210876 C 220.326508 588.611572 221.162354 595.991638 222.227844 603.340271 C 224.003906 609.84021 226.094955 616.25 228.493668 622.546997 L 229.746841 630.480164 L 229.329117 635.490601 L 227.240509 640.083496 C 226.822784 641.753662 225.151901 643.841309 223.898743 645.093933 C 223.063293 646.764099 221.39241 648.016724 220.556961 648.851807 L 215.544312 650.10437 L 208.443039 651.356995 C 203.879822 652.022888 199.268494 652.302246 194.658234 652.192078 Z M 142.860764 302.713989 L 144.113922 302.713989 C 146.069061 302.177643 148.018524 301.62088 149.962021 301.043823 L 153.721527 299.791229 L 156.645569 298.538605 C 157.481018 297.703552 157.481018 297.286011 157.481018 294.363251 C 156.816849 288.715546 155.699326 283.130371 154.139236 277.661804 C 150.01651 282.536377 146.247421 287.699158 142.860764 293.110657 L 141.18988 298.121094 L 141.607605 301.461365 C 142.025314 302.296448 142.025314 302.713989 142.860764 302.713989 Z M 106.936714 135.699371 C 109.474426 135.699371 111.531647 133.643066 111.531647 131.106476 C 111.531647 128.569885 109.474426 126.51355 106.936714 126.51355 C 104.398994 126.51355 102.341774 128.569885 102.341774 131.106476 C 102.341774 133.643066 104.398994 135.699371 106.936714 135.699371 Z M 150.79747 135.699371 C 153.33519 135.699371 155.39241 133.643066 155.39241 131.106476 C 155.39241 128.569885 153.33519 126.51355 150.79747 126.51355 C 148.25975 126.51355 146.20253 128.569885 146.20253 131.106476 C 146.20253 133.643066 148.25975 135.699371 150.79747 135.699371 Z M 83.962029 135.28183 L 83.544304 135.28183 Z M 109.860764 93.110626 L 109.443039 92.693115 Z"/>
</svg>
