<?xml version="1.0" encoding="UTF-8"?>
<!-- Generated by Pixelmator Pro 3.6.8 -->
<svg width="464" height="710" viewBox="0 0 464 710" xmlns="http://www.w3.org/2000/svg">
    <path id="Shape-copy" fill="#000000" fill-rule="evenodd" stroke="none" d="M 66.650635 597.774353 L 67.791283 596.514038 L 67.220955 595.88385 C 66.68071 595.286865 66.679245 595.222107 67.193649 594.653687 C 67.638428 594.16217 67.667587 593.943176 67.355118 593.442749 C 67.049721 592.953796 67.0728 592.554504 67.470581 591.443298 C 67.743973 590.679565 68.044754 589.416687 68.138985 588.636841 C 68.233223 587.856995 68.445068 586.484009 68.609848 585.585693 C 68.774544 584.687439 69.061165 583.668762 69.246712 583.322021 C 69.432259 582.975342 69.584106 581.807312 69.584106 580.72644 C 69.584106 579.316467 69.735962 578.593445 70.121506 578.167358 C 70.561905 577.680786 70.589828 577.462891 70.27636 576.960999 C 70.023125 576.55542 69.993507 576.16217 70.188896 575.797058 C 70.351212 575.493774 70.642448 574.324036 70.836067 573.197632 C 71.02977 572.071167 71.337082 570.676697 71.519012 570.098755 C 71.700943 569.520874 71.760406 568.571472 71.651169 567.988953 C 71.487785 567.118225 71.570091 566.866943 72.113953 566.575867 C 72.637817 566.295532 72.734207 566.034058 72.577126 565.319031 C 72.428734 564.643372 72.54512 564.25 73.039597 563.755493 C 73.515541 563.27948 73.619774 562.950806 73.412148 562.579895 C 73.253685 562.296692 73.201218 561.485962 73.295456 560.778198 C 73.389763 560.070435 73.673546 559.339111 73.926086 559.153076 C 74.297638 558.879395 74.312027 558.697632 74.001396 558.200317 C 73.702927 557.72229 73.70031 557.272156 73.989632 556.175354 C 74.194252 555.399658 74.576416 554.430298 74.83873 554.02124 C 75.101128 553.612183 75.248978 552.927673 75.167206 552.500061 C 75.085434 552.07251 75.142586 551.131104 75.294212 550.408081 C 75.445831 549.685059 75.714066 548.843628 75.890457 548.538269 C 76.066772 548.23291 76.125854 547.643677 76.02169 547.228821 C 75.911919 546.79126 76.029999 546.16449 76.303085 545.735962 C 76.562019 545.329712 76.853104 544.359253 76.949951 543.579468 C 77.046883 542.799622 77.215118 541.523499 77.323891 540.743652 C 77.432663 539.963806 77.720749 539.011719 77.964066 538.62793 C 78.207451 538.24408 78.40654 537.30481 78.40654 536.540649 C 78.40654 535.77655 78.61924 534.548523 78.879166 533.811768 C 79.139099 533.074951 79.351799 531.853455 79.351799 531.09729 C 79.351799 530.341064 79.651192 528.97644 80.017052 528.064819 C 80.38298 527.153137 80.813148 525.698242 80.973 524.831787 C 81.132927 523.965271 81.324318 522.353699 81.398476 521.250488 C 81.472557 520.147278 81.741875 518.658447 81.99688 517.942078 C 82.251892 517.225708 82.5439 515.85968 82.645668 514.906555 C 82.74752 513.953369 82.97776 512.4646 83.157379 511.598145 C 83.336998 510.731628 83.629005 509.455566 83.80632 508.762329 C 83.983559 508.069153 84.240181 506.621582 84.376419 505.545502 C 84.512726 504.469421 84.869049 502.555267 85.168289 501.291809 C 85.467453 500.028381 85.857849 498.42749 86.035774 497.734314 C 86.213631 497.041138 86.536331 495.977722 86.752876 495.371155 C 86.969345 494.764618 87.245583 493.559418 87.366661 492.692932 C 87.487823 491.826416 87.754524 490.975708 87.959373 490.802399 C 88.164154 490.629089 88.359314 489.707489 88.392929 488.754333 C 88.426544 487.801208 88.66378 486.028809 88.920174 484.815735 C 89.176567 483.602661 89.759735 480.837769 90.216217 478.67157 C 90.672615 476.505341 91.244019 474.09491 91.485947 473.315094 C 91.727875 472.535248 92.096046 470.999268 92.304207 469.901825 C 92.512367 468.804382 92.873451 467.715637 93.106689 467.482422 C 93.339851 467.249207 93.530701 466.628113 93.530701 466.102264 C 93.530701 465.576416 93.823639 464.403015 94.181648 463.49472 C 94.539658 462.586426 95.029366 461.127838 95.269836 460.253418 C 95.510384 459.378998 95.932159 458.025513 96.207092 457.245667 C 96.482025 456.46582 97.007271 455.189697 97.374283 454.409882 C 97.741219 453.630035 98.196312 452.692291 98.385544 452.326019 C 98.574783 451.959717 99.367653 450.906891 100.147522 449.98642 C 100.927399 449.065918 101.724266 447.947723 101.918427 447.501526 C 102.112587 447.055328 103.649017 445.272369 105.332687 443.539398 C 107.016357 441.806396 108.913414 440.075806 109.548431 439.693542 C 110.18338 439.31134 110.753014 438.744171 110.814247 438.433197 C 110.875473 438.122253 111.137329 437.628754 111.396263 437.336578 C 111.655113 437.044403 112.264984 436.666565 112.751534 436.496979 C 113.238014 436.327362 113.828491 435.78714 114.063728 435.296478 C 114.298889 434.805817 114.97007 434.178253 115.555313 433.901917 C 116.140564 433.62558 116.817894 433.020569 117.060516 432.557434 C 117.303215 432.094299 118.128937 431.420563 118.895416 431.060272 C 119.661903 430.699951 120.366005 430.170135 120.460007 429.882813 C 120.554008 429.595551 121.112953 429.049072 121.702126 428.668457 C 122.291222 428.287842 123.298943 427.514893 123.941498 426.950745 C 124.583984 426.386597 125.48378 425.734802 125.941025 425.502319 C 126.39827 425.269806 126.914131 424.908356 127.087448 424.699036 C 127.260757 424.489746 128.040558 423.89328 128.820419 423.373535 C 129.600296 422.853821 130.40155 422.385437 130.601013 422.332672 C 130.800568 422.279938 131.130341 421.834564 131.334045 421.342896 C 131.619431 420.653778 131.617355 420.309723 131.324814 419.841339 C 131.03949 419.38443 131.024033 418.55896 131.262421 416.513611 C 131.506744 414.417236 131.786896 413.464935 132.484314 412.360291 C 133.014557 411.520386 133.845734 410.712891 134.491989 410.40979 C 135.098541 410.125305 136.161957 409.41684 136.855133 408.835419 C 137.548309 408.253998 138.376022 407.552887 138.694504 407.277405 C 139.01297 407.001923 139.766846 406.570435 140.369781 406.318481 C 140.972733 406.066589 141.897675 405.368774 142.425308 404.767853 C 142.952942 404.166962 143.68988 403.598663 144.062973 403.505035 C 144.436142 403.411377 145.071243 402.853394 145.474411 402.265045 C 146.037888 401.442657 146.247971 400.603577 146.382813 398.636017 C 146.519745 396.63797 146.457596 395.976105 146.099274 395.617798 C 145.846878 395.365417 145.152466 394.874725 144.556152 394.527405 C 143.959824 394.180084 142.621246 393.466553 141.581436 392.941772 C 140.541641 392.416992 139.336441 391.786987 138.903198 391.541809 C 138.469955 391.296631 138.072784 391.21991 138.02063 391.371368 C 137.968399 391.522827 137.607849 391.328918 137.219376 390.94043 C 136.830978 390.551971 135.668411 389.93512 134.636063 389.569672 C 133.603653 389.204224 131.837357 388.553497 130.710938 388.123627 C 129.584518 387.693756 126.961441 386.69278 124.881836 385.899231 C 122.802231 385.105713 120.400772 384.138367 119.545212 383.749603 C 118.689644 383.360809 117.342682 382.627777 116.551888 382.120667 C 115.761169 381.613495 114.546974 380.922272 113.853798 380.584595 C 113.160622 380.246948 111.671806 379.179871 110.545387 378.213348 C 109.418968 377.246826 107.870461 375.811188 107.104279 375.023102 C 106.338104 374.234955 105.24176 373.339905 104.668053 373.034149 C 104.094345 372.728333 103.421318 372.090271 103.172546 371.616241 C 102.923767 371.142212 102.176743 370.247101 101.512642 369.627136 C 100.848473 369.007172 99.7379 368.064331 99.044724 367.531921 C 98.351547 366.999542 97.358978 365.96756 96.839111 365.238708 C 96.319252 364.509796 95.539383 363.516266 95.10614 363.030792 C 94.649818 362.519501 93.523087 361.881226 92.427902 361.513641 C 91.3881 361.164612 89.82843 360.610779 88.961945 360.282898 C 88.095459 359.954987 85.571068 358.793427 83.352234 357.70163 C 79.318031 355.716492 79.318031 355.716492 79.413643 354.570526 C 79.48819 353.67804 79.658035 353.403381 80.181747 353.328674 C 80.551605 353.275909 81.754333 352.32077 82.854599 351.206085 C 83.954788 350.09137 85.140976 348.704315 85.490608 348.123657 C 85.840157 347.54303 86.458252 346.725861 86.864189 346.307678 C 87.270042 345.889526 88.080223 344.911285 88.664474 344.13382 C 89.248726 343.356354 89.623116 342.616577 89.496422 342.489868 C 89.369728 342.36319 88.063301 342.290375 86.59333 342.328033 C 84.023254 342.393921 83.829704 342.348297 81.557404 341.141693 C 80.257675 340.451508 79.019402 339.683289 78.805702 339.43454 C 78.536926 339.121613 78.516617 338.862488 78.739853 338.593475 C 78.91732 338.379639 79.387802 338.123047 79.785271 338.023315 C 80.182747 337.923553 81.205238 337.165222 82.057495 336.338196 C 82.909676 335.511108 84.557884 334.015137 85.720078 333.013824 C 86.882263 332.012482 88.696014 330.137268 89.750587 328.84668 C 90.805153 327.556061 91.993729 325.752228 92.391747 324.838165 C 92.789833 323.924103 93.517395 322.041931 94.008644 320.655548 C 94.499886 319.269165 95.145752 317.779053 95.443993 317.344238 C 95.742233 316.909424 96.156555 315.916901 96.364716 315.138641 C 96.572876 314.360382 96.852654 313.581848 96.986427 313.408539 C 97.120201 313.235229 97.411209 312.530518 97.633064 311.842499 C 97.854996 311.15448 98.07077 310.020172 98.112617 309.321808 C 98.154388 308.623474 98.197929 307.626709 98.209312 307.106812 C 98.220772 306.586914 98.229156 305.665314 98.228157 305.058746 C 98.227081 304.452179 98.227158 303.420227 98.22831 302.765442 C 98.229462 302.110687 98.469398 300.816803 98.761482 299.890198 C 99.13588 298.702484 99.246727 297.565063 99.13726 296.034668 C 99.051796 294.840698 99.094337 293.653229 99.231804 293.395874 C 99.369194 293.138489 99.566353 291.722717 99.669891 290.249664 C 99.773361 288.776611 99.987907 286.153534 100.146599 284.420563 C 100.305374 282.687592 100.598152 280.489868 100.797394 279.536713 C 100.996552 278.583557 101.263481 277.591034 101.390564 277.331116 C 101.51757 277.071167 101.724266 276.44342 101.849808 275.936188 C 102.078049 275.013885 102.078049 275.013885 101.034012 275.869324 C 100.459763 276.339844 99.564583 276.924988 99.044724 277.169647 C 98.524857 277.414337 97.554214 278.123108 96.88781 278.74469 C 96.006706 279.566498 95.146988 279.99881 93.736938 280.329285 C 92.670372 280.579224 91.017853 281.09137 90.064751 281.467468 C 89.111641 281.843506 87.622826 282.205292 86.75634 282.271423 C 85.889847 282.337524 84.934662 282.529114 84.633812 282.697174 C 84.332878 282.865204 83.464005 283.002655 82.703056 283.002655 C 81.827797 283.002655 81.168007 283.18515 80.907234 283.49939 C 80.609917 283.857666 80.200516 283.940857 79.438263 283.797852 C 78.693008 283.658051 77.804825 283.8255 76.424782 284.36618 C 75.348518 284.78775 73.865318 285.207123 73.128838 285.298035 C 72.392349 285.389008 71.789719 285.342316 71.789719 285.194305 C 71.789719 285.046356 72.321426 284.538452 72.971291 284.065674 C 73.621155 283.592834 74.551338 282.770355 75.038353 282.237885 C 75.525291 281.705353 76.092468 280.911865 76.298706 280.474579 C 76.50486 280.037262 77.062881 279.173889 77.538742 278.556 C 78.014603 277.93808 78.563698 276.974243 78.75901 276.414093 C 78.961555 275.83313 79.436722 275.272888 79.865196 275.109985 C 80.31221 274.940033 80.966232 274.140808 81.480713 273.135742 C 81.956108 272.20694 82.770523 270.841827 83.290382 270.102112 C 83.810242 269.362366 84.784042 268.135559 85.4543 267.375885 C 86.12455 266.61615 87.152809 265.319702 87.739288 264.494812 C 88.325691 263.669952 88.680939 262.953491 88.528625 262.90274 C 88.376236 262.851959 87.773369 263.020416 87.188889 263.27713 C 86.604408 263.533844 85.726692 263.828522 85.238518 263.932007 C 84.707039 264.044617 84.138176 264.492859 83.820633 265.049225 C 83.529007 265.560242 82.867523 266.126404 82.350739 266.307373 C 81.833878 266.488342 80.983154 267.030548 80.46022 267.512299 C 79.937202 267.99408 78.963554 268.805267 78.296455 269.314941 C 77.629356 269.824646 76.707718 270.480133 76.24839 270.771545 C 75.78907 271.062988 75.305977 271.41745 75.174896 271.559265 C 75.043892 271.70108 74.662804 272.17157 74.328178 272.604797 C 73.829086 273.250977 73.617081 273.329742 73.148682 273.043152 C 72.69574 272.766083 72.566971 272.244415 72.526276 270.522461 C 72.495354 269.216095 72.653358 267.953247 72.922829 267.352264 C 73.16922 266.802887 73.459076 265.881256 73.566849 265.304199 C 73.674698 264.727142 74.035629 263.800385 74.36895 263.244751 C 74.702271 262.689087 75.357132 261.953308 75.824303 261.60968 C 76.571327 261.060181 76.616714 260.932526 76.200928 260.549072 C 75.941002 260.309387 74.948433 259.930847 73.995323 259.707855 C 73.042213 259.484924 71.779022 259.025909 71.188385 258.687836 C 70.597679 258.349731 69.529648 257.963898 68.815086 257.830383 C 68.100449 257.696869 66.876175 257.21283 66.09446 256.75473 C 65.312744 256.2966 64.102554 255.59903 63.405144 255.204559 C 62.707661 254.810059 61.536858 254.061951 60.803295 253.542053 C 60.069733 253.022156 58.753922 252.029633 57.87928 251.336456 C 57.004639 250.64328 55.752598 249.755737 55.096886 249.364227 C 54.441174 248.972687 53.143517 247.851227 52.213024 246.87204 C 51.282612 245.892883 49.599712 244.146027 48.473293 242.990143 C 47.346874 241.834259 45.787209 240.168457 45.007339 239.2883 C 44.227467 238.408173 43.234974 237.223083 42.801731 236.654846 C 42.368488 236.086578 41.872242 235.307678 41.698929 234.92395 C 41.525616 234.540222 40.875057 233.609711 40.253189 232.85611 C 39.631325 232.102539 38.577137 230.706146 37.9105 229.752991 C 37.243942 228.799866 36.639462 227.712219 36.567307 227.335968 C 36.495071 226.959717 36.094673 226.331177 35.677353 225.939178 C 35.192261 225.483398 34.98418 225.020081 35.100338 224.654083 C 35.217495 224.284973 34.904022 223.606018 34.217617 222.742432 C 33.632214 222.00589 32.883499 220.78125 32.553795 220.021088 C 32.224091 219.260956 31.684153 218.295593 31.354065 217.875854 C 31.023901 217.456146 30.642889 216.621246 30.507423 216.020508 C 30.371958 215.419739 29.912405 214.470947 29.48616 213.912048 C 29.059994 213.353149 28.322046 211.974213 27.84634 210.847809 C 27.37071 209.721375 26.910387 208.374359 26.82354 207.854462 C 26.736612 207.334564 26.436527 206.728851 26.156595 206.508423 C 25.87674 206.288025 25.643579 205.86264 25.638578 205.563171 C 25.633579 205.263702 25.282337 204.460144 24.858015 203.777466 C 24.433695 203.094818 24.107069 202.263 24.132223 201.928986 C 24.157379 201.594971 23.98522 201.019226 23.749596 200.649506 C 23.514051 200.279785 23.178425 199.445221 23.003881 198.79483 C 22.829336 198.144501 22.376245 197.110413 21.997004 196.496826 C 21.544144 195.764038 21.364676 195.088623 21.473988 194.528381 C 21.585529 193.956787 21.44837 193.467773 21.05805 193.04541 C 20.737656 192.698792 19.960247 191.139099 19.330381 189.579468 C 18.700516 188.019775 17.916952 185.627563 17.589172 184.263489 C 17.261316 182.899414 16.760071 181.525879 16.475368 181.211243 C 16.19059 180.896606 16.051279 180.48761 16.165743 180.302368 C 16.280209 180.117188 16.223207 179.470215 16.039047 178.864624 C 15.854965 178.259094 15.543032 177.238953 15.345872 176.597595 C 15.148788 175.956177 14.687928 175.185608 14.32184 174.885071 C 13.751592 174.417053 13.712667 174.246155 14.050062 173.692383 C 14.266685 173.336792 14.443921 172.8479 14.443921 172.605774 C 14.443921 172.363708 14.160374 172.091492 13.813747 172.000793 C 13.329424 171.874207 13.183574 171.571045 13.183574 170.691223 C 13.183574 170.061523 12.888103 168.967102 12.526937 168.259216 C 12.165772 167.55127 11.945535 166.684509 12.03746 166.332947 C 12.129387 165.981445 11.999459 165.297241 11.748837 164.8125 C 11.498137 164.327759 11.293053 163.578003 11.293053 163.146362 C 11.293053 162.714783 11.151279 162.273987 10.977966 162.16687 C 10.804653 162.059753 10.662879 161.3526 10.662879 160.595398 C 10.662879 159.816895 10.465642 159.021301 10.208942 158.764648 C 9.959319 158.515015 9.830237 158.023132 9.92224 157.67157 C 10.014167 157.320007 9.930933 156.736328 9.737235 156.374512 C 9.543613 156.012634 9.236988 155.041077 9.055829 154.215454 C 8.874593 153.389832 8.614122 152.00531 8.476965 151.138855 C 8.339807 150.272339 8.051028 148.801514 7.835329 147.8703 C 7.521243 146.514648 7.521935 146.12854 7.83856 145.932861 C 8.056028 145.798401 8.1478 145.463806 8.04249 145.189331 C 7.921178 144.87323 7.654939 144.765442 7.316467 144.895325 C 6.857606 145.071411 6.811451 144.952698 6.990534 144.05719 C 7.113691 143.441406 7.055228 142.840454 6.84776 142.590515 C 6.654523 142.357605 6.573521 141.846191 6.667754 141.454041 C 6.762065 141.061829 6.638215 140.173828 6.392592 139.480652 C 6.147046 138.787476 5.943963 137.609558 5.941347 136.863159 C 5.938732 136.116699 5.796112 134.91156 5.624337 134.184937 C 5.452639 133.458313 5.263941 132.154846 5.205093 131.288391 C 5.146245 130.421875 4.938854 129.415649 4.744309 129.052246 C 4.496456 128.589355 4.489994 128.292236 4.722693 128.05957 C 4.955393 127.826843 4.952085 127.411621 4.711616 126.67218 C 4.522918 126.091736 4.309834 124.97876 4.238063 124.198914 C 4.166291 123.419128 3.950438 121.292236 3.758356 119.472656 C 3.56635 117.653015 3.387498 115.597046 3.360959 114.90387 C 3.334342 114.210693 3.201415 113.333862 3.065411 112.955444 C 2.927176 112.570557 2.947253 112.223389 3.111104 112.167725 C 3.287572 112.107727 3.265955 111.378906 3.056872 110.335083 C 2.865866 109.381958 2.64609 107.32605 2.568318 105.766357 C 2.490623 104.206665 2.29931 100.945496 2.143305 98.519348 C 1.987223 96.093201 1.789679 92.264893 1.704291 90.012024 C 1.618981 87.759155 1.412205 85.348694 1.244815 84.655518 C 0.9985 83.635498 1.037578 83.287903 1.449591 82.832397 C 1.878143 82.358643 1.899143 82.104736 1.582364 81.228516 C 1.375281 80.655945 1.291586 79.759094 1.396282 79.235474 C 1.504977 78.692139 1.404436 77.892883 1.162197 77.373413 C 0.824341 76.64917 0.737646 73.309692 0.737646 61.024048 C 0.737646 49.039368 0.831187 45.302795 1.155736 44.324463 C 1.385666 43.631287 1.640366 41.220825 1.721753 38.967957 C 1.803141 36.715088 1.920067 34.09198 1.981608 33.138855 C 2.043148 32.18573 2.239616 30.19397 2.41816 28.712708 C 2.596781 27.231506 2.662552 25.420532 2.564318 24.688354 C 2.432545 23.705688 2.521317 23.207153 2.903406 22.785095 C 3.311957 22.333618 3.400114 21.69165 3.321727 19.739441 C 3.267109 18.378845 3.328727 16.481934 3.458731 15.524048 C 3.588735 14.566101 3.59235 13.635803 3.466808 13.456604 C 3.341189 13.277466 3.258109 12.562073 3.28211 11.866821 C 3.306111 11.171631 3.41996 10.305969 3.535118 9.943176 C 3.650275 9.580444 3.618659 8.944031 3.464808 8.528992 C 3.277725 8.024048 3.333496 7.357361 3.633352 6.514038 C 3.879821 5.820862 4.17983 4.825684 4.300065 4.302612 C 4.4203 3.779541 4.944085 2.822449 5.463947 2.175781 C 6.289281 1.149231 6.579982 1 7.755096 1 C 8.896977 1 9.412071 1.244446 11.153664 2.61322 C 12.2827 3.500366 13.411812 4.623596 13.662896 5.10907 C 13.913904 5.594543 14.553232 6.300598 15.083556 6.678284 C 15.613804 7.055908 16.123896 7.74585 16.217052 8.211487 C 16.31521 8.702087 16.842457 9.370544 17.470785 9.801208 C 18.067188 10.209839 18.941753 10.986694 19.414154 11.527588 C 19.886553 12.068359 20.813967 13.610474 21.475142 14.954407 C 22.136314 16.298462 22.899185 17.572266 23.170425 17.785156 C 23.441664 17.998047 24.197071 18.722778 24.849247 19.395752 C 25.619732 20.190674 26.100439 21.028381 26.221828 21.787598 C 26.346216 22.56543 26.634918 23.056946 27.085625 23.257996 C 27.457943 23.424133 27.92065 23.993164 28.113888 24.522522 C 28.307201 25.05188 29.153151 26.746277 29.993792 28.287842 C 30.834511 29.829529 31.778387 31.457153 32.091396 31.904968 C 32.404327 32.352722 32.796417 33.21167 32.96273 33.813843 C 33.128967 34.415955 33.643215 35.507751 34.105457 36.240051 C 34.56778 36.972351 35.198799 37.82428 35.507732 38.13324 C 35.816666 38.4422 36.320759 39.607117 36.627922 40.721985 C 36.935085 41.836792 37.438488 42.96167 37.746651 43.221619 C 38.054737 43.481567 38.379131 43.977783 38.467365 44.324463 C 38.555676 44.671082 39.106232 45.745422 39.690788 46.711914 C 40.275345 47.678406 41.08437 49.238037 41.488613 50.177856 C 41.892857 51.117615 42.673344 52.879028 43.223053 54.092102 C 43.772839 55.305237 44.841331 57.573853 45.597588 59.133484 C 46.353844 60.693176 47.75827 63.599854 48.718533 65.592773 C 49.678791 67.585693 50.60482 69.783447 50.776363 70.476624 C 50.94791 71.1698 51.536697 72.375061 52.084789 73.154846 C 52.632885 73.934692 53.486759 75.549744 53.982388 76.743774 C 54.477943 77.937805 55.300583 79.684875 55.810368 80.626099 C 56.320232 81.567383 56.891171 82.788147 57.079178 83.338989 C 57.267185 83.889771 57.814125 84.858765 58.294525 85.492188 C 58.774921 86.125671 59.402096 87.189087 59.688183 87.855347 C 59.974346 88.521606 60.345974 89.333862 60.51413 89.6604 C 60.7276 90.075073 60.703522 90.325867 60.434052 90.492371 C 60.163582 90.659546 60.296124 90.893066 60.877682 91.274109 C 61.350159 91.583679 61.70694 92.110596 61.70694 92.49884 C 61.70694 92.873596 61.93079 93.499817 62.204414 93.890503 C 62.478039 94.281128 62.828205 95.041138 62.982594 95.579407 C 63.136982 96.117737 63.4673 96.786743 63.716694 97.066101 C 63.966164 97.34552 64.218552 97.928589 64.27771 98.361816 C 64.350868 98.898071 64.556412 99.121094 64.921654 99.060364 C 65.317978 98.994507 65.546211 99.323669 65.795372 100.32074 C 65.980843 101.062927 66.287849 101.953796 66.47747 102.300415 C 66.667168 102.646973 67.139107 103.285034 67.526276 103.718262 C 67.913437 104.15155 68.534843 105.179504 68.907166 106.002686 C 69.27948 106.825867 69.860344 108.101929 70.197975 108.83844 C 70.535599 109.574951 70.954147 110.558838 71.128159 111.024902 C 71.302086 111.490906 71.734787 112.027649 72.089722 112.217529 C 72.503349 112.438904 72.734978 112.878479 72.734978 113.442139 C 72.734978 113.987732 73.049294 114.611267 73.563309 115.085266 C 74.01886 115.505371 74.600189 116.345398 74.855042 116.951965 C 75.109894 117.558472 75.522911 118.285156 75.772842 118.566711 C 76.022774 118.848328 76.185852 119.213745 76.135315 119.378784 C 76.08477 119.543884 76.205856 119.880615 76.404472 120.127197 C 76.603096 120.373718 76.918106 121.134094 77.104576 121.816833 C 77.290962 122.499634 77.803207 123.350403 78.24276 123.707397 C 78.688011 124.069031 79.331718 125.188904 79.696114 126.235962 C 80.055817 127.269653 80.586372 128.282532 80.875 128.486755 C 81.163704 128.69104 81.738487 129.319397 82.152428 129.883179 C 82.566284 130.44696 83.016144 131.40094 83.151917 132.003296 C 83.287766 132.605591 83.82663 133.54187 84.349342 134.083923 C 84.872124 134.625977 85.434067 135.423889 85.598221 135.857117 C 85.762383 136.290405 86.401169 137.409424 87.017807 138.343872 C 87.634445 139.27832 88.313156 140.722473 88.526009 141.552979 C 88.823944 142.715515 89.084946 143.106262 89.660042 143.250549 C 90.070976 143.353699 90.524147 143.752869 90.667152 144.137573 C 90.810158 144.522339 90.856544 145.022827 90.770157 145.249756 C 90.683769 145.476746 90.964622 146.043945 91.394325 146.510132 C 91.824036 146.976318 92.926842 148.704834 93.8451 150.351135 C 94.763359 151.997437 95.903389 153.769836 96.37841 154.289734 C 96.8535 154.809631 97.505981 155.734253 97.828377 156.344482 C 98.150772 156.954712 98.828102 158.060791 99.33358 158.80249 C 99.838974 159.544128 100.252525 160.346069 100.252525 160.584534 C 100.252525 160.822937 100.477692 161.076904 100.75293 161.148926 C 101.028091 161.220886 101.664726 161.904724 102.167587 162.668579 C 102.670448 163.432434 103.340782 164.438171 103.657173 164.903625 C 103.973648 165.369019 104.45974 166.317688 104.737442 167.011719 C 105.015137 167.70575 105.562927 168.483643 105.954704 168.740356 C 106.346489 168.997131 107.142517 169.962585 107.72361 170.885925 C 108.304626 171.809326 109.176422 173.02948 109.66082 173.597534 C 110.145226 174.165588 110.844398 175.229004 111.214485 175.960693 C 111.584656 176.692383 112.403984 177.858215 113.03524 178.551392 C 113.666489 179.244568 114.605209 180.499634 115.121223 181.340271 C 115.637238 182.18103 116.533958 183.418579 117.113899 184.090454 C 117.693924 184.762329 118.407021 185.780029 118.69857 186.35199 C 118.990189 186.92395 119.958992 188.309448 120.851479 189.430908 C 121.743896 190.552368 122.835388 191.840576 123.276939 192.293579 C 123.718491 192.746582 124.375359 193.809998 124.736679 194.656738 C 125.097923 195.503479 125.794479 196.621643 126.2845 197.141541 C 126.774513 197.661438 127.277916 198.441254 127.403145 198.874512 C 127.528381 199.307739 127.961861 200.016693 128.366486 200.449921 C 128.771042 200.883179 129.338516 201.803589 129.627441 202.495331 C 129.916382 203.187042 130.498932 204.164307 130.921951 204.667053 C 131.344971 205.1698 132.023453 206.234467 132.429535 207.032898 C 132.835709 207.83136 133.623962 209.051819 134.181122 209.744995 C 134.738373 210.438171 135.567322 211.760468 136.02327 212.683472 C 136.75621 214.166992 136.943832 214.342163 137.641464 214.194336 C 138.075485 214.102325 139.990234 213.366638 141.89653 212.559479 C 143.802811 211.752319 146.071426 210.955719 146.937912 210.789246 C 147.804398 210.622803 148.860596 210.262543 149.284988 209.988708 C 149.831467 209.636078 150.092316 209.597961 150.179016 209.858063 C 150.249634 210.069916 150.676498 209.823761 151.187973 209.276215 C 151.85968 208.557098 152.352463 208.327118 153.221115 208.327118 C 153.851669 208.327118 154.948624 208.03067 155.658722 207.668396 C 156.368896 207.306061 157.734558 206.805298 158.693512 206.555511 C 159.993546 206.216888 160.494186 206.193848 160.661728 206.464935 C 160.785263 206.664886 161.039276 206.775757 161.226135 206.711273 C 161.413055 206.646851 161.756836 206.331879 161.990234 206.011414 C 162.223541 205.690918 163.044189 205.292999 163.813751 205.127197 C 164.583313 204.961334 165.55072 204.833618 165.963593 204.843353 C 166.37645 204.853027 167.156311 204.593719 167.696564 204.26709 C 168.371658 203.858887 169.303772 203.667297 170.676956 203.654388 C 172.007614 203.641876 172.950577 203.455017 173.500046 203.094971 C 173.953842 202.797668 174.685318 202.515106 175.125565 202.467102 C 175.565735 202.419098 176.42215 202.289032 177.028702 202.17807 C 177.635254 202.067108 178.237427 201.87439 178.366821 201.749786 C 178.496201 201.625214 177.656097 200.608246 176.499832 199.489929 C 175.343491 198.371613 173.629593 196.676758 172.691101 195.723633 C 171.752609 194.770508 170.623199 193.281738 170.181259 192.415222 C 169.739395 191.548706 169.114227 190.654541 168.792053 190.42804 C 168.341583 190.11145 168.206268 189.614746 168.206268 188.278137 C 168.206268 187.043274 168.320358 186.569397 168.600128 186.641785 C 168.816757 186.697815 169.632004 187.150696 170.41188 187.648132 C 171.191742 188.14563 172.184235 188.870483 172.617493 189.258911 C 173.050735 189.647339 174.86702 190.799988 176.653687 191.820374 C 178.440353 192.840759 180.354492 193.915894 180.907364 194.209656 C 181.46022 194.503418 182.834183 195.19928 183.960617 195.75592 C 185.087036 196.312622 186.564301 196.893677 187.243332 197.047119 C 187.922424 197.200562 189.096848 197.743713 189.853104 198.254089 C 191.011978 199.036224 191.323456 199.122589 191.834702 198.803314 C 192.340561 198.487366 192.561111 198.537079 193.163589 199.102936 C 193.560837 199.476044 194.453018 199.919952 195.146194 200.089355 C 195.839371 200.258759 196.902786 200.562469 197.509338 200.764252 C 198.115906 200.966034 198.882462 201.212891 199.212784 201.312805 C 199.649948 201.445007 199.744797 201.38327 199.561096 201.086151 C 199.362625 200.764984 199.570786 200.726715 200.535904 200.90683 C 201.210846 201.032837 202.542877 201.33432 203.495987 201.576843 C 204.449097 201.819366 207.355804 202.081909 209.955276 202.160309 C 212.71051 202.243408 214.929123 202.454193 215.275208 202.665771 C 215.688293 202.918365 215.93161 202.927155 216.075226 202.694702 C 216.220001 202.46051 217.219421 202.457367 219.420181 202.684235 C 221.146393 202.862213 222.984131 203.066528 223.503998 203.138336 C 224.023865 203.210144 225.51268 203.414764 226.812408 203.593018 C 228.112152 203.771301 229.884506 204.06015 230.750992 204.234924 C 231.617493 204.409698 233.248077 204.693268 234.374496 204.865082 C 235.500916 205.036896 236.7061 205.308655 237.052734 205.469055 C 237.399353 205.629456 238.604553 205.851227 239.730972 205.961914 C 240.857391 206.072571 242.190735 206.366455 242.693909 206.614929 C 243.197159 206.863434 244.009567 207.066742 244.499268 207.066742 C 244.989059 207.066742 245.995239 207.306122 246.73526 207.598663 C 247.475296 207.891205 248.275925 208.401611 248.514481 208.73288 C 248.843338 209.189514 249.178802 209.289093 249.90152 209.144501 C 250.636932 208.997437 250.956009 209.098328 251.297409 209.585754 C 251.540802 209.933258 252.020508 210.217621 252.363373 210.217621 C 252.706223 210.217621 253.300858 210.41333 253.684631 210.652557 C 254.068497 210.891754 255.036301 211.169922 255.835403 211.270691 C 256.75827 211.387085 257.467682 211.314606 257.779999 211.072083 C 258.050476 210.862061 258.482635 210.171997 258.740479 209.538605 C 259.019714 208.852478 259.889435 207.851959 260.892029 207.063477 C 261.817505 206.335571 262.817474 205.27594 263.114075 204.708679 C 263.410706 204.141418 264.119659 203.399292 264.689514 203.059509 C 265.259399 202.719696 266.647278 201.532684 267.773682 200.421783 C 268.900116 199.310822 270.176239 198.330994 270.609467 198.244324 C 271.102478 198.145721 271.595825 197.688904 271.928223 197.023193 C 272.220306 196.438232 272.745697 195.800171 273.095795 195.605347 C 273.445953 195.4104 274.668762 194.361755 275.813171 193.274963 C 276.957611 192.18811 278.275421 191.123413 278.74173 190.908813 C 279.207977 190.694275 280.508484 189.633911 281.631805 188.552429 C 282.755096 187.470947 283.843048 186.586121 284.0495 186.586121 C 284.25589 186.586121 284.896545 186.156982 285.473083 185.632507 C 286.049652 185.108032 286.804901 184.420227 287.15152 184.104004 C 287.498169 183.787781 288.398712 183.118042 289.152832 182.615662 C 289.90686 182.113281 290.955566 181.461853 291.483215 181.168091 C 292.010773 180.874268 292.924316 180.165344 293.513275 179.592651 C 294.102142 179.019958 294.856476 178.48053 295.189545 178.39386 C 295.522552 178.30719 296.402527 177.729614 297.144836 177.110291 C 297.887238 176.491028 299.274536 175.464355 300.227631 174.828796 C 301.180725 174.193237 302.81134 173.023743 303.851135 172.229919 C 304.89093 171.436157 307.143066 169.839722 308.855988 168.682373 C 310.568878 167.525024 312.341248 166.335205 312.794556 166.03833 C 313.247894 165.741455 313.973297 165.206543 314.406525 164.849487 C 314.839783 164.492554 315.748718 163.74292 316.426361 163.183655 C 317.104004 162.624451 318.025665 162.007751 318.474426 161.813171 C 318.923218 161.618652 319.644867 161.07196 320.078094 160.598206 C 320.511353 160.124451 321.220276 159.601135 321.653534 159.435181 C 322.086792 159.269226 322.825806 158.766602 323.295807 158.318237 C 323.7659 157.869873 324.891937 157.205383 325.798187 156.841614 C 327.183014 156.285767 327.488861 156.013489 327.715118 155.134949 C 327.933563 154.286743 328.285126 153.950378 329.580475 153.35022 C 330.458344 152.943481 331.408905 152.251282 331.69278 151.812134 C 331.976715 151.372864 332.971283 150.403625 333.902985 149.658264 C 334.834625 148.912903 336.144592 147.942627 336.813934 147.502075 C 337.483337 147.061462 338.564301 146.175476 339.216095 145.533142 C 339.867859 144.890808 341.051453 143.833374 341.846161 143.183289 C 342.640869 142.533264 343.916992 141.558105 344.681946 141.016479 C 345.446899 140.474731 347.20694 138.94165 348.59314 137.609558 C 349.97934 136.277527 351.610077 134.877441 352.216949 134.498352 C 352.823883 134.119263 354.584259 132.603882 356.128906 131.130859 C 357.673676 129.657776 360.360046 127.105591 362.098785 125.45929 C 363.837463 123.812988 366.573029 121.189819 368.177765 119.630188 C 369.78241 118.070496 371.814789 116.156311 372.69397 115.376526 C 373.573242 114.59668 374.457581 113.577881 374.659271 113.112488 C 374.860962 112.647156 375.326294 112.105652 375.69339 111.90918 C 376.060455 111.712708 376.777252 111.041626 377.286194 110.417786 C 377.795227 109.793884 378.485779 109.059326 378.820862 108.785278 C 379.155945 108.51123 379.685272 108.003479 379.99704 107.65686 C 380.308838 107.310303 381.098083 106.382813 381.750946 105.595947 C 382.403748 104.80896 383.860321 103.249329 384.987671 102.129944 C 386.115021 101.01062 387.86969 99.173157 388.886871 98.046753 C 389.904053 96.920288 391.057465 95.825073 391.449951 95.612915 C 391.842407 95.400757 392.535583 94.592346 392.990295 93.816406 C 393.445099 93.040466 394.209503 92.173828 394.689117 91.890564 C 395.168762 91.607239 395.792938 90.997803 396.076233 90.536194 C 396.359558 90.074585 397.276733 89.038635 398.114471 88.23407 C 398.952118 87.429443 400.771851 85.520447 402.158203 83.99176 C 403.544556 82.463135 405.458771 80.410706 406.411865 79.430786 C 407.36499 78.450928 408.641113 77.033569 409.24765 76.281189 C 409.854218 75.528687 411.022949 74.198486 411.844879 73.325012 C 412.66684 72.451599 414.161133 70.815369 415.165466 69.688904 C 416.169861 68.5625 417.751373 66.673645 418.680023 65.491577 C 419.608673 64.309509 420.931488 62.891602 421.619598 62.340698 C 422.307678 61.789795 422.96402 61.0896 423.077942 60.784668 C 423.191956 60.479736 423.658417 59.841614 424.114502 59.36676 C 424.570679 58.891907 425.843109 57.596558 426.9422 56.48822 C 428.041321 55.379944 429.112732 54.165894 429.323212 53.790527 C 429.533691 53.415039 430.029999 52.927368 430.426025 52.706848 C 430.822113 52.486389 431.583038 51.764404 432.116913 51.102539 C 432.650787 50.440674 433.89505 49.070251 434.881927 48.057068 C 435.868805 47.043884 437.629791 45.23938 438.795044 44.047058 C 439.960388 42.854675 441.126587 41.659729 441.386505 41.391602 C 441.646454 41.123413 442.166138 40.610229 442.541382 40.251099 C 442.916565 39.891968 443.742279 39.172729 444.376221 38.652893 C 445.010162 38.132996 445.837494 37.400146 446.214661 37.024353 C 446.591919 36.64856 447.467712 36.0224 448.160889 35.632874 C 448.854065 35.243286 449.807861 34.570374 450.280334 34.137451 C 450.752808 33.704407 451.532684 33.09082 452.013306 32.773987 C 452.555847 32.416199 453.466492 32.19696 454.415009 32.195679 C 455.73349 32.193909 456.073883 32.333801 456.900238 33.217651 C 457.426788 33.780884 458.181335 34.667053 458.576904 35.18689 C 458.972443 35.706787 459.670624 37.124695 460.128418 38.337769 C 460.586121 39.550903 461.091522 41.677734 461.251434 43.064087 C 461.411438 44.450439 461.684143 46.293701 461.857452 47.160217 C 462.030853 48.026672 462.232788 49.302795 462.306244 49.995972 C 462.3797 50.689148 462.58194 52.319763 462.755646 53.619507 C 462.929352 54.91925 463.087189 58.103027 463.106415 60.694641 C 463.131104 64.025635 463.25473 65.487122 463.52829 65.681213 C 463.833221 65.897583 463.831665 65.989746 463.521362 66.115662 C 463.227203 66.234985 463.121643 67.764832 463.104492 72.157104 C 463.091888 75.391968 462.945892 78.818542 462.78009 79.771667 C 462.614319 80.724854 462.407104 82.355408 462.31955 83.395203 C 462.231995 84.434998 461.963226 86.207336 461.722229 87.333801 C 461.481232 88.460205 461.189758 90.586853 461.074524 92.05957 C 460.959198 93.532349 460.662262 95.222473 460.41449 95.815369 C 460.166779 96.408264 459.988556 97.330078 460.018494 97.863892 C 460.048401 98.397705 459.915161 99.401611 459.722382 100.094788 C 459.529541 100.787964 459.218689 102.347656 459.031433 103.56073 C 458.844299 104.773804 458.539673 106.546204 458.354584 107.499329 C 458.169586 108.452454 457.90625 110.012146 457.76947 110.965271 C 457.632782 111.918457 457.232849 113.761658 456.880768 115.061401 C 456.528748 116.361145 456.247681 117.849915 456.256287 118.369812 C 456.264832 118.889709 455.979736 120.165833 455.622711 121.205627 C 455.265625 122.245422 454.820618 123.734192 454.633759 124.514038 C 454.446838 125.293823 454.140686 126.711731 453.95343 127.664917 C 453.766144 128.618042 453.334656 130.532166 452.994629 131.918579 C 452.654633 133.304932 452.23053 134.935486 452.052216 135.542053 C 451.873901 136.148621 451.607971 137.282898 451.461212 138.062744 C 451.314514 138.84259 450.901794 140.042419 450.544098 140.728943 C 450.185089 141.41803 449.977844 142.242249 450.081482 142.568726 C 450.20694 142.964111 450.041382 143.319702 449.581757 143.641602 C 449.141663 143.94989 448.950897 144.339294 449.051514 144.72406 C 449.13797 145.054565 449.07843 145.79657 448.919281 146.372925 C 448.760193 146.94928 448.342194 147.681335 447.990479 147.999634 C 447.638702 148.317932 447.420776 148.760498 447.506226 148.983032 C 447.591614 149.205566 447.440002 149.60907 447.169373 149.879761 C 446.898773 150.150391 446.646667 150.828003 446.609222 151.385498 C 446.571747 151.943054 445.948486 153.405945 445.224182 154.636353 C 444.319 156.173889 443.907196 157.237793 443.907196 158.038635 C 443.907196 158.885925 443.692505 159.393066 443.12027 159.897644 C 442.687469 160.279236 442.062927 161.371277 441.732361 162.324463 C 441.401886 163.277588 440.810333 164.837219 440.417877 165.790405 C 440.025391 166.74353 439.444763 167.81604 439.127502 168.173828 C 438.810272 168.531616 438.55072 169.140625 438.55072 169.527283 C 438.55072 169.913879 438.180267 170.600708 437.727478 171.053528 C 437.274689 171.506348 436.513214 172.74054 436.035431 173.796204 C 435.557556 174.851929 434.6586 176.495483 434.037659 177.448608 C 433.416718 178.401733 432.692688 179.426453 432.428619 179.725708 C 432.16452 180.024963 431.741119 180.733948 431.487823 181.301147 C 431.234497 181.868347 430.520477 182.97052 429.901062 183.750305 C 429.281677 184.530151 428.404724 185.742798 427.952332 186.445129 C 427.499908 187.147461 426.740051 187.94574 426.263641 188.219177 C 425.737244 188.521301 425.289093 189.132629 425.121002 189.778015 C 424.968933 190.362 424.206421 191.527832 423.426575 192.368774 C 422.646698 193.209778 421.087036 194.818054 419.960602 195.942688 C 418.834198 197.067322 417.388672 198.647919 416.748444 199.455048 C 416.108093 200.262207 415.271698 201.087952 414.889679 201.2901 C 414.50766 201.492279 413.784485 202.317505 413.282562 203.123901 C 412.710693 204.042664 411.972046 204.756409 411.304352 205.03537 C 410.718323 205.280273 410.148224 205.73114 410.037598 206.037384 C 409.927002 206.343567 408.713715 207.58667 407.341522 208.799744 C 405.96933 210.012817 404.178741 211.462006 403.362549 212.020142 C 402.546387 212.578278 401.132782 213.759796 400.221222 214.645752 C 399.257965 215.58197 398.222321 216.294037 397.748138 216.34613 C 397.29953 216.395355 396.729584 216.702637 396.481659 217.0289 C 396.233704 217.355194 395.946075 217.871857 395.84256 218.177032 C 395.739014 218.482178 395.274078 218.928467 394.809357 219.168793 C 394.344666 219.409119 393.681244 219.923401 393.335022 220.311646 C 392.988831 220.69986 392.216431 221.224396 391.618652 221.477203 C 391.020782 221.730072 389.690887 222.697754 388.66333 223.627625 C 387.635742 224.557526 386.068939 225.695221 385.181519 226.155853 C 384.294098 226.616455 383.315002 227.224335 383.005676 227.506653 C 382.696381 227.789032 382.200134 228.279968 381.902893 228.597656 C 381.605652 228.915314 380.847534 229.384827 380.21814 229.640991 C 379.588745 229.897156 378.628845 230.660339 378.085083 231.336975 C 377.455292 232.120697 376.648163 232.701477 375.861298 232.937256 C 375.181915 233.140808 374.156708 233.800629 373.583069 234.403534 C 373.009369 235.006439 372.043793 235.706573 371.437256 235.959442 C 370.830688 236.21228 370.17981 236.616974 369.990753 236.858734 C 369.801727 237.100464 369.360107 237.408386 369.009399 237.542969 C 368.658691 237.677612 367.749908 238.296997 366.98996 238.919434 C 366.229919 239.541901 365.22229 240.146179 364.750732 240.262299 C 364.279175 240.378387 363.73584 240.767731 363.543304 241.127502 C 363.292297 241.596497 362.994202 241.731689 362.490051 241.605133 C 361.993408 241.480499 361.314148 241.773071 360.176819 242.601532 C 359.29126 243.246582 358.0242 244.095734 357.361115 244.488464 C 356.698029 244.881195 355.517517 245.556335 354.73764 245.988831 C 353.957764 246.421295 352.414642 247.218018 351.30838 247.759338 C 350.202209 248.300629 348.828308 248.849243 348.255371 248.978485 C 347.682434 249.107697 346.744324 249.497894 346.170593 249.845581 C 345.596893 250.193298 344.276794 250.71756 343.236969 251.010559 C 342.197174 251.303558 341.035675 251.742737 340.655884 251.986511 C 340.276123 252.230255 339.354462 252.642456 338.607819 252.902496 C 337.861206 253.162598 336.931305 253.377411 336.541382 253.379944 C 336.120667 253.38266 335.832428 253.578278 335.832428 253.861115 C 335.832428 254.136139 336.569244 254.663544 337.574646 255.108215 C 338.532898 255.532013 339.530029 256.091797 339.790405 256.352234 C 340.050812 256.61264 340.791046 256.917725 341.435394 257.030243 C 342.07962 257.1427 343.018524 257.431885 343.521667 257.672791 C 344.024933 257.913696 344.627472 258.110809 344.860809 258.110809 C 345.094116 258.110809 345.285034 258.241333 345.285034 258.400848 C 345.285034 258.560394 344.876709 258.780609 344.377625 258.890228 C 343.87854 258.999847 342.637878 259.527283 341.620605 260.062347 C 340.603363 260.597382 339.203857 261.257599 338.510681 261.529449 C 337.817505 261.8013 336.895844 262.268982 336.462616 262.568695 C 336.029358 262.868439 335.036865 263.278107 334.257019 263.479095 C 333.477142 263.680054 332.271942 264.054382 331.578766 264.310883 C 330.88559 264.567413 329.813721 264.883911 329.19693 265.014252 C 328.580048 265.144562 327.617035 265.522003 327.056702 265.852936 C 326.227692 266.342682 325.989288 266.375763 325.77597 266.030548 C 325.55835 265.678406 325.38681 265.685577 324.765259 266.072906 C 324.353546 266.329498 323.351288 266.698883 322.538025 266.89386 C 321.724762 267.088837 319.654541 267.248322 317.9375 267.248322 C 316.22052 267.248322 314.36615 267.091644 313.816833 266.900116 C 313.055969 266.634888 312.705017 266.64563 312.344238 266.945007 C 312.083771 267.161255 311.822388 267.282501 311.763367 267.214447 C 311.704376 267.146454 311.498138 266.786652 311.304993 266.415009 C 311.111908 266.043304 310.504578 265.58255 309.955322 265.391083 C 309.235992 265.140289 308.841431 265.138733 308.544128 265.385437 C 308.27713 265.607056 308.199585 266.079437 308.324341 266.724426 C 308.430359 267.272522 308.71991 267.841034 308.967682 267.987762 C 309.257233 268.159271 309.350616 268.523682 309.229065 269.007996 C 309.125061 269.422363 309.165619 270.011261 309.319153 270.31662 C 309.472687 270.621979 309.881165 271.509888 310.226868 272.289734 C 310.572662 273.06955 311.013123 274.700134 311.20575 275.913208 C 311.398376 277.126282 311.717773 279.46582 311.915619 281.112152 C 312.113403 282.758484 312.287781 285.452484 312.303101 287.098785 C 312.318481 288.745117 312.157074 294.912964 311.944458 300.805084 C 311.557831 311.518036 311.557831 311.518036 312.380768 313.854218 C 312.833405 315.13913 313.57251 316.769684 314.023224 317.477722 C 314.473999 318.18573 315.087341 319.261261 315.386169 319.867828 C 315.685028 320.474396 317.018707 322.175812 318.349823 323.648865 C 319.82785 325.284363 321.340759 326.616852 322.23587 327.07132 C 323.042053 327.480591 323.985138 328.074585 324.331757 328.391205 C 324.678406 328.707825 325.529114 329.102966 326.22229 329.269226 C 326.915466 329.435455 328.083649 329.872009 328.818146 330.239288 C 329.552704 330.606628 330.371277 331.239075 330.637054 331.644806 C 330.902893 332.050537 331.04007 332.591888 330.941895 332.847778 C 330.843658 333.103668 330.304718 333.531738 329.744171 333.799072 C 329.183624 334.066376 328.30365 334.6297 327.788727 335.050903 C 327.273773 335.472107 326.309601 336.129211 325.646118 336.511139 C 324.982635 336.893036 323.917542 337.322906 323.279114 337.466339 C 322.640717 337.609772 321.575378 337.984772 320.911743 338.299713 C 320.248108 338.614655 319.641937 339.037048 319.564697 339.238403 C 319.487396 339.439758 319.782623 340.374451 320.220734 341.315582 C 320.658813 342.256714 321.018585 343.456024 321.020294 343.980682 C 321.022064 344.529877 321.281128 345.155457 321.630829 345.454865 C 321.977844 345.751953 322.332397 346.602051 322.457642 347.437103 C 322.594635 348.350922 322.89856 349.037659 323.267975 349.268402 C 323.607147 349.480164 323.859131 349.997375 323.859131 350.481506 C 323.859131 350.945679 324.061676 351.726868 324.309235 352.217438 C 324.556854 352.708069 325.127869 354.031128 325.578278 355.157532 C 326.028656 356.283966 326.68161 357.73819 327.029236 358.38913 C 327.661255 359.572693 327.661255 359.572693 326.941772 359.867859 C 326.546082 360.030243 325.087952 360.217438 323.701599 360.283905 C 322.276154 360.352203 320.872437 360.598602 320.470886 360.850922 C 320.080261 361.096375 319.088135 361.276886 318.265259 361.252197 C 317.442719 361.227509 315.597565 361.119202 314.164917 361.011536 C 311.66214 360.823486 311.549377 360.843842 311.283813 361.531403 C 311.131805 361.924988 310.649353 362.580048 310.211639 362.987061 C 309.773926 363.394104 309.239288 364.17395 309.02359 364.720032 C 308.807892 365.266144 308.247803 366.078003 307.778931 366.5242 C 307.310089 366.970398 306.528595 367.936737 306.042267 368.671661 C 305.555878 369.406555 304.764618 370.211243 304.283905 370.459869 C 303.803131 370.708466 303.296417 371.103149 303.157867 371.336945 C 303.019257 371.57074 302.52832 371.960632 302.066772 372.20343 C 301.605286 372.446228 300.497559 373.391357 299.605225 374.303711 C 298.71283 375.216095 297.271759 376.350403 296.402832 376.824402 C 295.533936 377.298431 294.270142 377.97406 293.594513 378.325836 C 292.918854 378.677612 291.882843 379.433807 291.292206 380.006287 C 290.701569 380.578735 289.811859 381.255707 289.315063 381.510651 C 288.818359 381.765564 287.906708 382.377197 287.289215 382.869781 C 286.671753 383.362427 285.466553 384.003021 284.610992 384.293365 C 283.755432 384.58374 282.831543 385.023712 282.557922 385.271149 C 282.284393 385.518524 281.610901 385.720947 281.061249 385.720947 C 280.401306 385.720947 280.062073 385.875122 280.062073 386.175018 C 280.062073 386.424713 280.203857 386.716675 280.377167 386.823761 C 280.550476 386.930878 280.692261 387.357483 280.692261 387.77182 C 280.692261 388.186157 281.111176 389.145844 281.623199 389.90451 C 282.230133 390.803864 282.997711 391.467285 283.828796 391.810852 C 284.529846 392.100647 285.635162 392.536377 286.285034 392.779083 C 286.934906 393.02182 288.175568 393.474213 289.042053 393.784454 C 289.908539 394.094696 291.184662 394.541718 291.877838 394.777832 C 292.571014 395.013977 293.302948 395.422272 293.504272 395.685211 C 293.705597 395.948181 294.167969 396.241119 294.531769 396.336243 C 294.895538 396.431366 295.273163 396.827972 295.370941 397.217529 C 295.468719 397.607117 295.957336 398.227966 296.456757 398.597198 C 297.126984 399.092773 297.538635 399.852203 298.028473 401.497131 C 298.532349 403.188873 298.605896 403.829651 298.333954 404.157349 C 298.059113 404.488495 298.123413 404.795135 298.610046 405.474091 C 299.017365 406.042419 299.293457 407.035675 299.381439 408.249664 C 299.456848 409.289459 299.793549 411.06665 300.1297 412.199005 C 300.465881 413.33136 301.086273 414.830627 301.508362 415.530731 C 301.930389 416.230804 303.055573 417.762451 304.008667 418.934418 C 304.961792 420.106354 306.025208 421.473175 306.371826 421.971802 C 306.718445 422.470367 307.981659 423.908417 309.179077 425.167419 C 310.376404 426.426422 311.768524 428.026703 312.272614 428.723572 C 312.776794 429.420471 313.533966 430.200745 313.955444 430.457489 C 314.40799 430.733246 314.721619 431.219666 314.721619 431.645813 C 314.721619 432.101227 314.999939 432.494141 315.476349 432.711212 C 315.89151 432.90033 316.539673 433.472473 316.91684 433.982605 C 317.294006 434.492737 317.74527 435.319244 317.919556 435.819275 C 318.093872 436.319305 318.452881 436.908081 318.717529 437.127655 C 318.982056 437.347198 319.334229 437.887146 319.500092 438.327515 C 319.665924 438.767883 320.191254 439.553528 320.667358 440.073425 C 321.143524 440.593323 321.946228 441.582306 322.451172 442.271179 C 322.956024 442.960022 323.618744 444.013062 323.923676 444.611298 C 324.228699 445.209503 324.822021 446.063782 325.242188 446.509674 C 325.662354 446.955597 326.233063 447.816681 326.510468 448.423218 C 326.787842 449.029755 327.320251 450.022308 327.693573 450.628845 C 328.066803 451.235382 328.715363 452.105957 329.134705 452.563416 C 329.554077 453.020905 330.033417 454.013428 330.19989 454.769043 C 330.366333 455.524628 330.770966 456.86792 331.098907 457.754059 C 331.42691 458.640228 331.788147 460.270813 331.901703 461.377563 C 332.01532 462.484314 332.292938 464.169678 332.518707 465.122833 C 332.744568 466.075989 333.086273 467.531342 333.278046 468.356995 C 333.46991 469.182648 333.626831 470.802063 333.626831 471.955688 C 333.626831 473.401917 333.777466 474.219604 334.111938 474.589203 C 334.525482 475.046173 334.545258 475.444885 334.245941 477.292236 C 334.052856 478.484131 333.970306 479.937683 334.062469 480.5224 C 334.154602 481.107117 334.478638 481.860138 334.78241 482.195831 C 335.243103 482.704865 335.26181 482.851257 334.89502 483.077911 C 334.537018 483.299194 334.522797 483.57373 334.81842 484.555359 C 335.018036 485.218445 335.254883 488.100525 335.344574 490.959961 C 335.434265 493.819366 335.639648 498.781982 335.800964 501.987976 C 335.962372 505.19397 336.037598 509.731262 335.968353 512.07074 C 335.899048 514.410278 335.716064 516.608032 335.561737 516.95459 C 335.40744 517.301208 335.266968 518.789978 335.249664 520.263 C 335.232269 521.736023 335.132721 524.053101 335.028412 525.412109 C 334.924194 526.771057 334.634949 528.460693 334.385773 529.16687 C 334.136688 529.873047 334.013062 530.703735 334.111145 531.012756 C 334.209229 531.321777 334.071838 531.995422 333.805908 532.509766 C 333.539917 533.024109 333.336731 533.98822 333.35437 534.652344 C 333.371979 535.316467 333.181213 536.713989 332.930359 537.757935 C 332.679565 538.80188 332.226105 540.034912 331.922638 540.497986 C 331.525696 541.103821 331.456757 541.493286 331.677002 541.886841 C 331.885223 542.258972 331.844299 542.843079 331.548828 543.715515 C 331.310059 544.420532 330.970978 545.24353 330.795288 545.544434 C 330.619659 545.845398 330.475952 546.784607 330.475952 547.631714 C 330.475952 548.47876 330.254639 549.792236 329.9841 550.550537 C 329.713562 551.308838 329.355682 552.567261 329.188843 553.347107 C 329.022064 554.126953 328.764587 555.615723 328.616821 556.655518 C 328.468964 557.695313 328.118896 559.092651 327.838867 559.76062 C 327.549561 560.450684 327.41394 561.311157 327.524872 561.753052 C 327.632263 562.180786 327.560333 562.690552 327.365021 562.885803 C 327.169769 563.081055 327.01001 563.644897 327.01001 564.138733 C 327.01001 564.632568 326.798859 565.444946 326.540833 565.94397 C 326.265076 566.477173 326.146759 567.227295 326.253906 567.762939 C 326.370361 568.345276 326.131287 569.558167 325.592041 571.120544 C 325.127716 572.465759 324.704315 574.015137 324.651093 574.563599 C 324.597931 575.112 324.250061 576.765991 323.878052 578.239014 C 323.506134 579.712036 323.11911 581.697083 323.017975 582.650208 C 322.91687 583.603333 322.557037 584.843811 322.218384 585.40686 C 321.780853 586.134155 321.605316 586.992126 321.611847 588.3703 C 321.617004 589.437195 321.415771 590.801636 321.164673 591.402466 C 320.913666 592.003296 320.708282 592.752991 320.708282 593.068542 C 320.708282 593.384033 320.409332 594.148865 320.044006 594.768066 C 319.565155 595.579651 319.433533 596.181152 319.572632 596.922546 C 319.705688 597.631714 319.573608 598.327698 319.147308 599.163818 C 318.807281 599.830811 318.43927 601.031677 318.329498 601.832458 C 318.219727 602.63324 318.011963 603.713745 317.867798 604.233643 C 317.723724 604.75354 317.434784 605.95874 317.225861 606.911865 C 317.016998 607.86499 316.705841 608.821289 316.534454 609.036926 C 316.363129 609.252563 316.299591 609.819702 316.393372 610.297241 C 316.487152 610.774841 316.350586 611.874512 316.090057 612.740967 C 315.829437 613.607483 315.466034 614.670898 315.282501 615.104126 C 315.098877 615.537354 314.848785 616.407104 314.726624 617.036926 C 314.604462 617.666687 313.97522 619.155518 313.328278 620.345337 C 312.681335 621.535156 311.810547 623.034302 311.393219 623.676758 C 310.9758 624.319275 310.331726 625.006897 309.9617 625.204895 C 309.43808 625.485107 309.342163 625.479065 309.528534 625.17749 C 309.667694 624.952332 309.626373 624.84021 309.429932 624.909729 C 309.243988 624.975525 308.763428 625.322205 308.36203 625.680176 C 307.960632 626.038086 307.206787 626.591431 306.68692 626.909851 C 306.167053 627.228271 305.209564 627.963379 304.559143 628.543457 C 303.908813 629.123535 303.04541 629.598145 302.640472 629.598145 C 302.160919 629.598145 301.779053 629.872742 301.545288 630.385864 C 301.311981 630.898071 300.929565 631.173584 300.452179 631.173584 C 300.048309 631.173584 299.442688 631.383972 299.106293 631.641113 C 298.769897 631.898193 297.928802 632.267334 297.237244 632.461365 C 296.545593 632.655396 295.623962 633.060303 295.189178 633.361206 C 294.754303 633.662109 293.760498 634.25 292.980621 634.667725 C 292.200775 635.085449 291.497986 635.569031 291.418732 635.74231 C 291.3396 635.915649 291.234436 636.979065 291.18512 638.105469 C 291.135803 639.231934 291.074188 641.358765 291.048126 642.831787 C 291.022125 644.30481 291.08551 648.700256 291.189056 652.599487 C 291.332581 658.001587 291.503143 660.063904 291.905762 661.264343 C 292.196289 662.130859 292.49292 663.761414 292.564941 664.887878 C 292.636871 666.014282 292.767548 667.403809 292.855408 667.975647 C 292.955017 668.624207 293.608795 669.69104 294.593231 670.811401 C 295.461243 671.799255 296.660828 673.126709 297.259003 673.761414 C 297.857239 674.396057 298.717133 675.724609 299.169983 676.713745 C 299.939484 678.394531 299.979767 678.710632 299.786316 681.546448 C 299.672455 683.215332 299.406219 684.921265 299.194519 685.337402 C 298.98291 685.753601 298.809753 687.175781 298.809753 688.497803 C 298.809753 690.079529 299.067596 691.81427 299.56369 693.570313 C 299.978302 695.038086 300.577576 696.735229 300.895355 697.341797 C 301.213043 697.948303 302.096466 700.363464 302.858398 702.70874 C 303.62027 705.054077 304.343842 707.429016 304.466309 707.98645 C 304.688934 709 304.688934 709 188.685684 709 C 124.883911 709 72.734901 708.893677 72.798981 708.763672 C 72.863136 708.633728 73.433769 707.463928 74.067169 706.164246 C 74.700577 704.864502 75.475212 703.446594 75.788612 703.013367 C 76.102005 702.580078 76.543709 701.72937 76.770027 701.122803 C 76.996414 700.516296 77.303352 699.665527 77.452126 699.2323 C 77.600899 698.799072 78.011681 697.895935 78.364922 697.225403 C 78.718163 696.55481 79.232567 695.757141 79.508034 695.452698 C 79.783501 695.148315 80.092514 694.349976 80.194672 693.678589 C 80.296829 693.007263 80.634758 692.174377 80.945541 691.827759 C 81.256393 691.481201 81.612022 690.772217 81.735794 690.252319 C 81.859642 689.732422 82.170273 688.881714 82.426201 688.361816 C 82.682137 687.841919 83.139534 687.132996 83.442696 686.786377 C 83.745857 686.439758 84.248184 685.447266 84.559036 684.58075 C 84.869896 683.714294 85.292442 682.863525 85.497993 682.690247 C 85.703613 682.516968 86.130699 681.878906 86.447098 681.272339 C 86.763565 680.665833 87.08696 679.815063 87.165886 679.381836 C 87.244736 678.948608 87.600594 678.273987 87.956528 677.882751 C 88.312462 677.491455 88.769402 676.689575 88.971794 676.100647 C 89.174255 675.51178 89.734894 674.34314 90.217598 673.503662 C 90.70031 672.664185 91.366943 671.676819 91.699028 671.30957 C 92.03112 670.942261 92.401901 670.300293 92.522903 669.882874 C 92.643982 669.465454 93.218002 668.426208 93.798637 667.573425 C 94.379265 666.720642 94.973129 665.710266 95.118446 665.328125 C 95.263756 664.945923 95.643921 664.371521 95.963242 664.051636 C 96.282639 663.731689 96.737961 662.904724 96.975197 662.213867 C 97.212357 661.52301 97.381897 660.265381 97.351974 659.419128 C 97.321976 658.572876 97.143661 657.223938 96.955658 656.421509 C 96.767647 655.619141 96.625031 654.493835 96.638725 653.920837 C 96.652496 653.3479 96.956886 652.506409 97.315208 652.050903 C 97.673523 651.595398 98.421936 650.94458 98.978333 650.604614 C 99.534737 650.264709 100.294609 649.901001 100.666924 649.796326 C 101.039246 649.691711 102.067352 648.869507 102.951691 647.969238 C 103.836029 647.068909 104.870979 645.792847 105.251534 645.133423 C 105.63208 644.47406 106.269951 643.49585 106.668961 642.959595 C 107.068047 642.42334 107.394524 641.627808 107.394524 641.191772 C 107.394524 640.755737 107.755997 639.866333 108.197777 639.215332 C 108.639641 638.56427 108.958649 638.002869 108.906723 637.967834 C 108.854874 637.932739 108.228775 637.736694 107.515526 637.532104 C 106.802193 637.327576 105.589928 637.160217 104.821518 637.160217 C 104.053108 637.160217 103.289703 637.034607 103.125084 636.881042 C 102.960457 636.727478 101.975044 636.509277 100.935242 636.396118 C 99.895439 636.282959 98.372391 636.049622 97.550674 635.877625 C 96.729034 635.705627 95.523766 635.440063 94.872437 635.287537 C 94.221107 635.13501 92.647675 634.710083 91.375946 634.343384 C 90.104134 633.976624 88.372002 633.32605 87.526588 632.897705 C 86.681259 632.469299 85.544296 632.118835 85.00013 632.118835 C 84.25795 632.118835 84.055176 632.002808 84.188873 631.654541 C 84.31826 631.317383 83.960785 631.065247 82.883446 630.733765 C 82.067497 630.482788 80.851227 629.98938 80.180672 629.637451 C 79.510109 629.285522 78.720932 628.779846 78.427002 628.513855 C 78.133064 628.247803 77.472511 627.946167 76.959183 627.843506 C 76.396782 627.731018 75.8293 627.314575 75.531601 626.795837 C 75.259827 626.322327 74.525337 625.691833 73.899323 625.394775 C 73.2733 625.097717 72.578049 624.523926 72.354195 624.119629 C 72.130417 623.715393 71.493553 622.786133 70.938995 622.054626 C 70.384438 621.32312 69.635185 620.114197 69.274017 619.368103 C 68.89624 618.58783 68.595535 617.29364 68.566078 616.321533 C 68.529922 615.128967 68.327682 614.418884 67.879211 613.909241 C 67.325958 613.280518 67.298035 613.099792 67.663506 612.514465 C 68.019829 611.944031 68.011292 611.789185 67.607658 611.49408 C 67.327652 611.289307 67.085335 610.50177 67.018875 609.580383 C 66.929794 608.346313 67.005951 608.016174 67.378502 608.021667 C 67.638428 608.025513 67.921822 607.978516 68.008209 607.917175 C 68.094521 607.855835 67.925591 607.630432 67.632736 607.41626 C 67.261269 607.144653 67.083031 606.509399 67.043106 605.315186 C 67.011642 604.373779 67.007568 603.319885 67.034103 602.973267 C 67.060646 602.626709 66.990257 601.876709 66.877716 601.306641 C 66.727249 600.544312 66.821022 600.106812 67.232185 599.652466 C 67.767746 599.060669 67.767281 599.008179 67.220955 598.404541 L 66.650635 597.774353 Z M 74.071091 269.138855 C 74.202713 269.138855 74.31041 268.870453 74.31041 268.542358 C 74.31041 268.214325 74.0774 267.856537 73.792702 267.747284 C 73.507919 267.638 73.214531 267.609009 73.140678 267.682831 C 73.066833 267.756744 73.192146 268.114502 73.419075 268.477997 C 73.64608 268.841461 73.939476 269.138855 74.071091 269.138855 Z"/>
</svg>
