<svg width="1602" height="826" xmlns="http://www.w3.org/2000/svg">
  <path d="M73 743a128 128 0 0 1-32-32 217 217 0 0 1-28-64 439 439 0 0 1-13-67l1-20a242 242 0 0 1 33-85c2-4 9-11 14-16a4183 4183 0 0 1 38-41 918 918 0 0 0-8-2l-10-3a76 76 0 0 1-35-36l-6-15a107 107 0 0 1-3-28l3-3 3 5 5 10a56 56 0 0 0 32 27 54 54 0 0 0 27-1l3-3-8-4-12-6-11-10-8-12-4-10c0-3 0-3 2-2l9 5c4 2 10 7 14 8 5 3 7 3 12 3l13-3a121 121 0 0 0 23-14l3-3h-4l-10 5-13 4-9-1-3-3c0-2 2-3 5-5l8-4 7-6 2-5-7-1a151 151 0 0 1-30-4l-14-7-12-9a92 92 0 0 1-16-22l-5-15-3-16 1-11c1-2 1-2 3 0 2 1 4 6 7 10l9 13c3 4 8 7 12 9l13 6 13 1 11-1 4-3-4-3-10-5c-6-2-9-5-15-10l-10-14-4-10c0-4 0-4 2-4l10 7 14 8 11 2 13-3 14-8c7-4 7-4 5-5l-10 2-14 3-8-1-3-3 12-7c9-4 15-8 19-12a80 80 0 0 0 18-26 239 239 0 0 0 7-18v-2l-7 4c-3 3-7 4-9 5-2 0-2 0-1-3a179 179 0 0 1 12-34 252 252 0 0 1 31-47c0-2-1-2-2-3l-3-3c0-2 2-4 7-8a229 229 0 0 1 36-21c6-2 10-2 19-3l20 1a86 86 0 0 1 26 8c7 3 7 3 8 2a351 351 0 0 1 22-28c5-5 11-10 14-11 2-2 7-3 9-4 5-1 5-1 5 1l-8 18c-5 9-9 20-10 24l-2 9 15 2h17l5-5c2-3 4-4 4-3 1 0 3 2 3 5l3 8c0 4 0 4 5 1a70 70 0 0 0 23-24l11-16 10-8 8-2c3 0 4 1 5 4 2 3 2 5 2 11a175 175 0 0 1-13 51c-8 23-8 24-7 28l7 12a970 970 0 0 0 10 15l8 17a450 450 0 0 1 17 46c3 7 6 11 11 16 5 6 9 8 18 12a678 678 0 0 0 56 25 376 376 0 0 1 3 48c0 9-1 11-3 16-2 4-5 8-11 13l-12 10-8 3-9-3-7-4-4-1-6 1c-1 1-2 1-2 3l2 2-3 4-7 4c-3 1-4 1-7-1l-9-7a210 210 0 0 0-42-25c-10-5-16-7-18-7l-7 2-5 6c-2 3-2 6-2 14s0 13 2 20l7 19c3 7 6 10 12 16s11 10 17 13l18 7a417 417 0 0 0 50 15 102 102 0 0 1 42 25l9 11a108 108 0 0 1 6 30c0 5 0 5 10-5a439 439 0 0 1 49-43c1-3 1-3-1-4h-7a70 70 0 0 0-25 9 109 109 0 0 0-20 13l-1-4a88 88 0 0 1 4-24l6-11 4-7c0-2 0-2-4-2l-5-2a330 330 0 0 1 31-31l7-9 6-18a951 951 0 0 1 11-35l-9 4-12 7-6 3v-8a65 65 0 0 1 9-27l12-12a284 284 0 0 1 25-22l-7-1-7-1 10-11a931 931 0 0 0 32-33l-6 2-3-1 8-9 14-11 18-9c9-5 11-6 11-8a77 77 0 0 1 0-3c0-2 0-2 9-2l14 1c4 0 4 0 7-6a202 202 0 0 1 25-36c5-5 9-9 13-11l10-3 4 1a421 421 0 0 1-14 31l-4 12c0 5 0 5 7 7l10 3 5-5 6-5 5 2 7 2c3 1 4 1 7-2 3-2 3-3 2-5v-3h6a3188 3188 0 0 0 16-22l8-6 6-2c2 0 4 1 5 3 2 2 2 4 2 9l-2 17-8 26-6 20c0 4 0 5 3 10a2070 2070 0 0 0 17 29 409 409 0 0 1 16 42 45 45 0 0 0 23 21l28 12c19 7 19 7 20 16a408 408 0 0 1-1 47l-7 9-11 9c-4 4-6 4-9 4l-10-2c-5-3-5-3-8 0a722 722 0 0 1-7 5l-7 3c-3 0-4 0-10-5a169 169 0 0 0-37-23c-13-6-13-6-17-5-3 1-5 3-6 5-2 3-2 5-2 11s0 11 2 18l6 15 7 11a65 65 0 0 0 28 17 331 331 0 0 0 41 12l15 5 12 7 15 13a265 265 0 0 1 24 30l6 13c2 5 2 11 5 39l3 34 19-9a449 449 0 0 0 28-17c1-1 2-4 1-5 0-2 0-3 2-4l8-2 9-3 5-4c1-1 1-2-3-7-3-6-3-6-1-9 2-2 2-2 0-9a140 140 0 0 0-14-30 240 240 0 0 0-27-35l-9-10h9c1-1 1-2-1-5l-8-9-9-9-4-6c0-2 0-2 4-2l6 1 1-2-4-13a901 901 0 0 0-22-49c0-3 0-3 3-1l10 7 8 6 3-4a1243 1243 0 0 0 10-32 244 244 0 0 1 11-23l2 3 2 9 3 8c2 2 2 2 5 1l11-8 13-10 8-5 5 1c2 2 2 2 4 0 3-2 3-3 4-12l1-16 3-10 6-8 6-3 6 3 8 13 9 17c2 4 4 9 6 10l6 4 7 2c3 1 5 0 9-1 3 0 7-2 8-4l6-9 5-15 4-12 4-5 6 2 5 5 4 7 1 10-2 8-1 3 3-1 3-2 1 2-2 6c0 4 0 6 2 8l9 9a285 285 0 0 0 70 38c3 2 4 2 4 4l-4 6c-3 3-4 5-4 7l2 7 6 10 7 12a76 76 0 0 1 6 30l2 14 5 4 10 3c4 0 7 2 9 3l3 6a29 29 0 0 1-2 20l-9 13-10 15a4600 4600 0 0 0-8 15l-9 12-7 7-5 2c-3 0-4 0-8-4-3-2-7-5-10-5a90 90 0 0 0-37-3l-5 2v4c0 1 3 3 7 4l10 9 8 14a451 451 0 0 1 22 54l7 10a1060 1060 0 0 1 11 51c3 23 3 23 5 18a530 530 0 0 1 22-29l12-11 9-5 10-2c5-1 5-1 10 8a332 332 0 0 0 24 34l8 9 11-20 10-19 10 4 10 8 4 18a1174 1174 0 0 1 13 58l2-13c1-7 2-10 6-16a233 233 0 0 1 20-27l10-9a35 35 0 0 1 20-7c5-1 5-1 11 9a290 290 0 0 0 31 42l6-10a546 546 0 0 0 15-29c1-1 2 0 10 4 9 5 9 5 11 12l7 31 14 80-1530 1 11-41 10-29 5-13Zm46-53-1-4-9-21a732 732 0 0 1-28-67l-1 15 3 15a40361 40361 0 0 1 36 62Zm1400-3c-10 0-13 0-20-3a174 174 0 0 1-37-19c-9-5-9-6-11-12l-5-14-1-17 3-17c3-8 3-8 0-15-3-6-3-6-1-12l8-18a168 168 0 0 0 12-40l2-4 4-2c2 0 4 1 7 4l10 14 8 14c1 2 4 4 6 4h10l16-1c9 0 11 0 14-2l7-6 11-17 11-15 3-2 1 7-2 16-6 23c-2 11-2 11 3 17l8 8v13c-2 7-2 10-1 14l1 16c0 6 0 10 2 13 1 3 1 3 10 3l8 1c-1 1-3 2-8 2l-7 1-2 3c0 3 0 3 5 3l6 1-2 2-6 1c-5-1-5-1-9 7l-11 16c-7 6-8 7-14 9a111 111 0 0 1-33 4Zm-153-28c-16 0-17 0-25-3a183 183 0 0 1-37-19c-9-5-9-5-13-17-3-10-3-13-3-22 0-10 0-13 2-21 3-9 3-9 0-15l-3-8 5-12a361 361 0 0 0 19-54c2-2 3-2 5-2 2 1 5 2 7 5l9 14 8 13c1 2 4 4 7 4 3 2 4 2 10 0l16-1c11 0 11 0 16-4l10-12a1254 1254 0 0 1 18-25c1 0 2 1 2 5l-2 16-5 22c-3 13-3 13 2 18l7 8 2 6-2 10v13l1 16 2 13c2 3 2 3 10 3l7 1c-1 1-3 2-7 2l-7 1-2 3c0 3 0 3 4 3l5 1-1 2-6 1c-4 0-4 0-9 9l-10 13-9 7-10 4-23 2ZM890 389l-3-3-9-8c-3-2-7-8-10-12l-7-8-3 3-2 3c0 1 3 5 8 9l13 10 8 5 5 1Z" fill="#111"/>
  <path d="M1543 674c-8 0-15-6-22-10-1-2-6-7-2-4 9 6 15 13 27 11 5-2 8-11 9-16l-2-1c-5-5-4-6 2-6 8 0 7 1 2 6 1 4 4 11 6 11 4 2 10 10 4 6l-10-8c-2 5-3 6-8 9a12 12 0 0 1-6 2Z" fill="#eee"/>
</svg>