<?xml version="1.0" encoding="UTF-8"?>
<svg width="136px" height="108px" viewBox="871 414 136 108" xmlns="http://www.w3.org/2000/svg" xmlns:xlink="http://www.w3.org/1999/xlink" version="1.1">
 <!-- Generated by Pixelmator Pro 1.5.2 -->
 <path id="Shape" d="M942.583 522 C904 522 904 522 904 519.606 904 517.311 903.836 517.254 899.993 518.23 897.79 518.789 893.542 519.044 890.553 518.796 886.895 518.493 883.796 517.469 881.068 515.664 878.84 514.19 875.821 511.176 874.359 508.967 872.716 506.485 871.519 503.051 871.223 499.976 870.933 496.951 871.145 495 871.764 495 872.325 495 873.04 496.025 873.355 497.278 873.669 498.531 875.18 500.752 876.713 502.214 878.246 503.677 880.766 505.352 882.315 505.937 883.863 506.521 886.563 506.993 888.315 506.985 890.067 506.976 892.105 506.586 892.845 506.117 893.829 505.493 893.443 505.077 891.406 504.566 889.875 504.182 887.35 502.962 885.796 501.855 884.241 500.748 882.268 498.486 881.411 496.828 880.554 495.171 880.058 493.609 880.309 493.358 880.56 493.107 882.456 494.049 884.522 495.451 886.588 496.853 889.581 498 891.172 498 892.764 498 896.346 496.845 899.132 495.433 901.919 494.021 903.971 492.638 903.692 492.359 903.413 492.081 901.816 492.561 900.142 493.426 898.469 494.292 895.978 495 894.609 495 893.239 495 891.848 494.563 891.518 494.03 891.188 493.496 892.028 492.78 893.385 492.439 894.742 492.099 896.63 490.961 897.581 489.91 899.262 488.053 899.165 488 894.123 488 891.27 488 887.263 487.301 885.218 486.447 883.173 485.593 880.222 483.68 878.661 482.197 877.099 480.714 875.115 478.15 874.252 476.5 873.389 474.85 872.374 472.14 871.998 470.479 871.621 468.817 871.616 466.594 871.986 465.539 872.559 463.906 873.008 464.243 875.013 467.811 876.574 470.587 878.762 472.675 881.5 474 883.772 475.1 887.177 475.993 889.066 475.985 890.954 475.976 893.078 475.603 893.785 475.154 894.66 474.599 893.847 473.971 891.244 473.191 889.139 472.561 886.172 470.745 884.65 469.157 883.128 467.568 881.616 465.248 881.29 464 880.963 462.753 881.102 461.907 881.598 462.121 882.094 462.334 884.075 463.518 886 464.751 887.925 465.984 890.755 466.994 892.29 466.996 893.824 466.999 896.905 466.069 899.137 464.93 901.368 463.792 903.034 462.7 902.838 462.505 902.642 462.309 900.642 462.64 898.394 463.24 896.146 463.841 893.45 463.984 892.403 463.558 890.783 462.9 891.05 462.589 894.193 461.465 896.224 460.739 899.201 459.172 900.808 457.983 902.416 456.795 904.674 454.145 905.827 452.094 906.979 450.043 908.255 447.497 908.663 446.436 909.387 444.549 909.341 444.547 906.615 446.333 905.081 447.338 903.592 447.926 903.307 447.64 903.021 447.355 904.297 443.831 906.142 439.811 908.041 435.672 911.33 430.656 913.722 428.25 916.411 425.546 917.381 424 916.39 424 915.534 424 915.016 423.438 915.239 422.75 915.462 422.063 918.716 419.925 922.471 418 928.273 415.026 930.306 414.5 936.011 414.5 941.169 414.5 944.086 415.123 948.611 417.189 952.792 419.097 956.86 420.044 962.637 420.453 969.67 420.95 970.863 420.8 971.42 419.347 971.807 418.34 972.422 418.033 972.955 418.583 973.444 419.087 974.161 421.3 974.549 423.5 974.936 425.7 975.87 429.014 976.623 430.864 977.377 432.715 979.342 435.765 980.99 437.642 982.639 439.52 984.839 442.731 985.879 444.778 986.919 446.825 988.385 450.329 989.136 452.564 989.888 454.8 993.094 460.011 996.26 464.145 999.427 468.279 1002.914 473.516 1004.009 475.782 1005.236 478.323 1006 481.958 1006 485.261 1006 488.257 1005.387 491.456 1004.609 492.52 1003.416 494.152 1002.849 494.253 1000.609 493.232 998.122 492.099 998 492.179 998 494.954 998 497.038 997.4 498.056 995.888 498.535 994.612 498.94 993.289 498.67 992.544 497.853 991.866 497.109 990.335 495.072 989.141 493.326 987.627 491.111 985.389 489.633 981.735 488.436 978.856 487.493 973.35 485.029 969.5 482.962 965.65 480.894 961.487 478.901 960.25 478.534 958.101 477.896 958 478.123 958 483.567 958 486.702 958.549 491.12 959.221 493.384 960.068 496.237 962.579 499.649 967.402 504.5 971.229 508.35 975.742 513.441 977.43 515.813 979.119 518.185 980.65 520.547 980.833 521.063 981.037 521.635 966.155 522 942.583 522 Z" fill="#000000" fill-opacity="1" stroke="none"/>
</svg>
