<?xml version="1.0" encoding="UTF-8"?>
<svg width="120px" height="107px" viewBox="18 419 120 107" xmlns="http://www.w3.org/2000/svg" xmlns:xlink="http://www.w3.org/1999/xlink" version="1.1">
 <!-- Generated by Pixelmator Pro 1.5.2 -->
 <path id="Shape" d="M81.109 526 C65.282 526 52.079 525.747 51.77 525.437 51.46 525.127 52.997 520.74 55.187 515.687 57.376 510.634 60.049 502.284 61.128 497.132 62.224 491.893 62.959 485.062 62.794 481.632 62.499 475.5 62.499 475.5 57.499 474.838 54.749 474.473 48.674 474.146 43.999 474.11 37.507 474.06 34.449 474.521 31.052 476.062 27.319 477.755 26.148 477.89 23.762 476.902 22.199 476.254 20.263 474.786 19.459 473.64 18.656 472.493 18.006 469.518 18.014 467.028 18.022 464.538 18.585 461.494 19.264 460.264 19.943 459.034 23.424 456.558 26.999 454.762 30.574 452.965 38.674 448.025 44.999 443.783 51.324 439.542 58.279 434.814 60.453 433.278 64.29 430.567 64.399 430.329 64.129 425.242 63.976 422.359 66.494 419 67 419 67.505 419 66.513 420.911 67.521 422.024 68.923 423.573 69.545 423.749 70.176 422.774 70.825 421.77 71.207 421.817 71.983 423 72.524 423.825 73.116 424.927 73.299 425.449 73.482 425.971 75.014 425.414 76.704 424.21 78.393 423.008 81.181 421.314 82 421 83.013 420.611 82.965 421.727 83.418 423.531 83.927 425.559 84.484 426.007 85.791 425.439 86.731 425.03 89.018 424.483 90.874 424.224 93.341 423.879 94.132 424.101 93.817 425.048 93.554 425.836 95.763 427.553 99.442 429.422 102.806 431.132 105.643 433.278 105.823 434.25 106.027 435.357 105.521 436 104.445 436 103.183 436 103.786 437.184 106.778 440.585 108.997 443.107 111.951 446.508 113.342 448.141 115.828 451.062 115.837 451.125 113.821 451.87 111.938 452.567 112.14 452.954 116.303 456.618 118.796 458.813 121.794 462.233 122.967 464.22 124.139 466.207 125.373 469.526 125.709 471.597 126.319 475.361 126.319 475.361 122.495 472.997 118.938 470.799 118.706 470.769 119.178 472.567 119.457 473.63 120.197 476.075 120.823 478 121.449 479.925 122.634 484.007 123.456 487.071 124.627 491.433 126.041 493.712 129.974 497.571 132.736 500.282 134.997 502.838 134.998 503.25 134.999 503.663 134.287 504 133.418 504 132.057 504 132.111 504.453 133.812 507.25 134.899 509.038 136.065 512.3 136.404 514.5 136.743 516.7 136.61 519.129 136.109 519.898 135.379 521.02 134.316 520.574 130.745 517.648 128.297 515.642 125.504 514 124.539 514 123.28 514 122.974 514.494 123.455 515.75 123.824 516.713 125.109 518.547 126.312 519.827 127.515 521.107 128.885 522.841 129.357 523.68 130.071 524.952 129.713 525.096 127.202 524.545 125.439 524.157 123.918 524.322 123.536 524.942 123.176 525.524 121.895 525.997 120.69 525.994 119.485 525.99 117.175 525.114 115.556 524.047 112.642 522.126 112.599 522.126 111.249 524.053 109.952 525.906 108.49 526 81.109 526 Z" fill="#000000" fill-opacity="1" stroke="none"/>
</svg>
