<?xml version="1.0" encoding="UTF-8"?>
<svg version="1.1" viewBox="0 0 1024 1024" width="512" height="512" xmlns="http://www.w3.org/2000/svg">
    <style>
        path {
            fill: #000;
        }
        @media (prefers-color-scheme: dark) {
            path {
                fill: #fff;
            }
        }
    </style>
<path d="m545.13 973.52c-136.6 0-250.56-2.184-253.23-4.858-2.674-2.672 10.597-40.54 29.492-84.153 18.893-43.61 41.969-115.68 51.276-160.15 9.466-45.22 15.804-104.18 14.382-133.78-2.541-52.926-2.541-52.926-45.697-58.643-23.735-3.144-76.17-5.971-116.52-6.283-56.039-0.432-82.431 3.546-111.75 16.847-32.219 14.615-42.329 15.78-62.92 7.253-13.492-5.589-30.202-18.259-37.135-28.155-6.931-9.897-12.54-35.577-12.474-57.07 0.069-21.492 4.924-47.762 10.788-58.376 5.864-10.613 35.907-31.985 66.764-47.489 30.856-15.508 100.77-58.149 155.36-94.759 54.592-36.608 114.61-77.411 133.38-90.672 33.114-23.393 34.059-25.454 31.728-69.355-1.321-24.884 20.412-53.877 24.776-53.877 4.365 0-4.199 16.491 4.494 26.098 12.104 13.374 17.474 14.891 22.917 6.473 5.604-8.667 8.905-8.254 15.599 1.953 4.67 7.122 9.782 16.634 11.36 21.138 1.581 4.504 14.803-0.306 29.384-10.69 14.582-10.383 38.644-24.997 45.709-27.709 8.748-3.355 8.33 6.273 12.241 21.848 4.392 17.503 9.204 21.37 20.484 16.462 8.109-3.529 27.85-8.247 43.87-10.485 21.295-2.978 28.124-1.062 25.397 7.116-2.265 6.795 16.803 21.62 48.552 37.752 29.039 14.754 53.522 33.279 55.073 41.668 1.766 9.557-2.6 15.103-11.889 15.103-10.889 0-5.691 10.218 20.139 39.578 19.148 21.767 44.64 51.113 56.65 65.215 21.461 25.204 21.53 25.75 4.134 32.185-16.253 6.012-14.506 9.353 21.421 40.98 21.517 18.94 47.397 48.464 57.516 65.612 10.116 17.146 20.766 45.798 23.665 63.667 5.273 32.49 5.273 32.49-27.738 12.088-30.699-18.973-32.703-19.232-28.63-3.715 2.408 9.177 8.799 30.281 14.199 46.893 5.403 16.616 15.63 51.848 22.727 78.295 10.104 37.645 22.315 57.317 56.255 90.626 23.843 23.396 43.356 45.453 43.362 49.013 9e-3 3.561-6.13 6.473-13.638 6.473-11.748 0-11.274 3.909 3.404 28.051 9.379 15.429 19.447 43.587 22.373 62.575 2.925 18.989 1.781 39.956-2.545 46.594-6.307 9.679-15.48 5.831-46.295-19.419-21.135-17.319-45.239-31.491-53.567-31.491-10.866 0-13.506 4.263-9.355 15.105 3.181 8.309 14.278 24.143 24.66 35.192 10.38 11.048 22.205 26.013 26.274 33.255 6.17 10.979 3.077 12.22-18.598 7.46-15.216-3.343-28.339-1.922-31.643 3.426-3.106 5.024-14.157 9.11-24.557 9.08-10.402-0.032-30.342-7.594-44.314-16.802-25.147-16.578-25.521-16.578-37.171 0.056-11.197 15.987-23.82 16.8-260.14 16.8z"/>
</svg>
