<svg xmlns="http://www.w3.org/2000/svg" viewBox="38 85 950 857"><path d="M540 941c-126 0-231-2-233-4s10-38 27-78 39-107 47-149c9-42 15-96 13-124-2-49-2-49-42-54-22-3-70-6-107-6-52 0-76 3-103 16-30 13-39 14-58 6-12-5-28-16-34-26s-12-33-12-53 5-44 10-54 33-29 62-44 93-54 143-88l123-84c30-21 31-23 29-64-1-23 23-50 23-50s-4 15 4 24c11 13 16 14 21 6s8-7 15 2c4 7 9 15 10 20s14-1 27-10 36-23 42-26c3-1 10-3 6 1-3 2 3 9 5 19 4 17 9 20 19 16 8-4 26-8 41-10l25-4-5 17c-2 6 19 13 48 28 20 11 62 62 62 62s-19-5-24-5c-10 0-4 6 20 33l52 60 26 27s-15 0-22 3c-15 6-13 9 20 38 20 18 44 45 53 61a216 216 0 0125 94s-14-15-29-24c-28-17-30-18-26-3l13 43 21 73c9 35 20 53 52 84 22 22 40 42 40 45s-6 6-13 6c-11 0-10 4 3 26 9 15 18 41 21 58 6 32 7 50 7 50s-52-57-102-54c-10 1-12 4-8 14 3 8 13 23 23 33s20 24 24 31c2 3 4 14 4 14s-8-4-21-7c-14-3-27-2-30 3-2 5-13 8-22 8H540z"/></svg>